<svg xmlns="http://www.w3.org/2000/svg" width="44" height="44" viewBox="0 0 44 44" fill="none">
  <path fill-rule="evenodd" clip-rule="evenodd" d="M15.621 30.5801C15.3007 30.9233 14.7628 30.9418 14.4196 30.6215C14.0764 30.3012 14.0579 29.7633 14.3782 29.4201L20.8369 22.5001L14.3782 15.5801C14.0579 15.2369 14.0764 14.699 14.4196 14.3787C14.7628 14.0584 15.3007 14.0769 15.621 14.4201L21.9996 21.2543L28.3782 14.4201C28.6985 14.0769 29.2364 14.0584 29.5796 14.3787C29.9228 14.699 29.9413 15.2369 29.621 15.5801L23.1623 22.5001L29.621 29.4201C29.9413 29.7633 29.9228 30.3012 29.5796 30.6215C29.2364 30.9418 28.6985 30.9233 28.3782 30.5801L21.9996 23.7458L15.621 30.5801Z" fill="#B1B1B1"/>
</svg>