<svg xmlns="http://www.w3.org/2000/svg" width="16" height="16" viewBox="0 0 16 16" fill="none">
              <path d="M1.66602 1.8335C1.66602 1.70089 1.61334 1.57371 1.51957 1.47994C1.4258 1.38617 1.29862 1.3335 1.16602 1.3335C1.03341 1.3335 0.90623 1.38617 0.812462 1.47994C0.718694 1.57371 0.666016 1.70089 0.666016 1.8335V14.1668C0.666016 14.4428 0.890016 14.6668 1.16602 14.6668H13.3327C13.4653 14.6668 13.5925 14.6142 13.6862 14.5204C13.78 14.4266 13.8327 14.2994 13.8327 14.1668C13.8327 14.0342 13.78 13.907 13.6862 13.8133C13.5925 13.7195 13.4653 13.6668 13.3327 13.6668H1.66602V1.8335Z" fill="#1A1A1A"/>
              <path d="M14.8541 5.18656C14.9424 5.09178 14.9905 4.96642 14.9882 4.83688C14.9859 4.70735 14.9334 4.58376 14.8418 4.49215C14.7502 4.40054 14.6266 4.34807 14.4971 4.34578C14.3676 4.3435 14.2422 4.39158 14.1474 4.4799L10.3341 8.29323L7.85409 5.81323C7.76034 5.7196 7.63325 5.667 7.50075 5.667C7.36825 5.667 7.24117 5.7196 7.14742 5.81323L3.14742 9.81323C3.0983 9.85901 3.05889 9.91421 3.03157 9.97554C3.00424 10.0369 2.98954 10.1031 2.98836 10.1702C2.98717 10.2374 2.99952 10.304 3.02467 10.3663C3.04982 10.4286 3.08725 10.4851 3.13473 10.5326C3.18221 10.5801 3.23876 10.6175 3.30102 10.6426C3.36328 10.6678 3.42997 10.6801 3.4971 10.679C3.56424 10.6778 3.63045 10.6631 3.69178 10.6358C3.75311 10.6084 3.80831 10.569 3.85409 10.5199L7.50075 6.87323L9.98075 9.35323C10.0745 9.44686 10.2016 9.49946 10.3341 9.49946C10.4666 9.49946 10.5937 9.44686 10.6874 9.35323L14.8541 5.18656Z" fill="#1A1A1A"/>
          </svg>