<svg xmlns="http://www.w3.org/2000/svg" width="16" height="16" viewBox="0 0 16 16" fill="none">
  <path d="M10.7617 2.08138L10.7617 2.08137C11.1027 1.74032 11.5606 1.54171 12.0426 1.52584C12.5241 1.50998 12.9936 1.67762 13.3561 1.9948L13.4496 2.08251L13.9198 2.55263C13.9198 2.55263 13.9198 2.55263 13.9198 2.55264C14.2606 2.89358 14.4591 3.35137 14.475 3.83323C14.4909 4.31453 14.3233 4.78387 14.0063 5.14634L13.9186 5.23989L6.44632 12.7129C6.44632 12.7129 6.44632 12.7129 6.44632 12.7129C6.35187 12.8073 6.23759 12.8795 6.11177 12.9243L6.00926 12.9541L3.0431 13.6387L3.04294 13.6387C2.95452 13.6593 2.86246 13.6583 2.7745 13.6358C2.68654 13.6134 2.60527 13.5701 2.53752 13.5097C2.46977 13.4493 2.41753 13.3735 2.3852 13.2886C2.35321 13.2047 2.34164 13.1144 2.35141 13.0252L2.36374 12.9555L3.04769 9.98866C3.04769 9.98864 3.0477 9.98861 3.0477 9.98858C3.07796 9.85834 3.13685 9.73649 3.2201 9.63188L3.29037 9.55274L10.7617 2.08138ZM10.2905 4.29623L10.2197 4.22555L10.1491 4.29624L4.15669 10.2886L4.13641 10.3089L4.12996 10.3368L3.70603 12.1752L3.67008 12.3311L3.82598 12.2951L5.66434 11.8705L5.69228 11.8641L5.71255 11.8438L11.7049 5.85143L11.7756 5.78071L11.7049 5.71L10.2905 4.29623ZM11.6356 2.81885L11.6354 2.81869L11.6307 2.8229L11.568 2.87822L11.5679 2.87808L11.5635 2.88242L11.0916 3.35368L11.0208 3.42441L11.0916 3.49517L12.506 4.90894L12.5767 4.97961L12.6474 4.90892L13.1187 4.43766L13.048 4.36695L13.1187 4.43766C13.2507 4.30567 13.33 4.13005 13.3417 3.94375C13.3534 3.75746 13.2967 3.57329 13.1823 3.4258L13.1825 3.42568L13.1783 3.42091L13.1229 3.35825L13.1231 3.35812L13.1187 3.35373L12.6474 2.88247L12.5767 2.95318L12.6474 2.88247C12.5154 2.75049 12.3398 2.6712 12.1535 2.65949C11.9672 2.64777 11.7831 2.70444 11.6356 2.81885Z" fill="#1A1A1A" stroke="#F2F4F8" stroke-width="0.2"/>
</svg>