<svg xmlns="http://www.w3.org/2000/svg" width="16" height="16" viewBox="0 0 16 16" fill="none">
  <g clip-path="url(#clip0_3160_975)">
    <path d="M10.5 5C11.0052 5 11.4922 5.0651 11.9609 5.19531C12.4297 5.32552 12.8672 5.51042 13.2734 5.75C13.6797 5.98958 14.0521 6.27604 14.3906 6.60938C14.7292 6.94271 15.0156 7.3125 15.25 7.71875C15.4844 8.125 15.6693 8.5651 15.8047 9.03906C15.9401 9.51302 16.0052 10 16 10.5C16 11.0052 15.9349 11.4922 15.8047 11.9609C15.6745 12.4297 15.4896 12.8672 15.25 13.2734C15.0104 13.6797 14.724 14.0521 14.3906 14.3906C14.0573 14.7292 13.6875 15.0156 13.2812 15.25C12.875 15.4844 12.4349 15.6693 11.9609 15.8047C11.487 15.9401 11 16.0052 10.5 16C9.99479 16 9.50781 15.9349 9.03906 15.8047C8.57031 15.6745 8.13281 15.4896 7.72656 15.25C7.32031 15.0104 6.94792 14.724 6.60938 14.3906C6.27083 14.0573 5.98438 13.6875 5.75 13.2812C5.51562 12.875 5.33073 12.4349 5.19531 11.9609C5.0599 11.487 4.99479 11 5 10.5C5 10.3333 5.00781 10.1667 5.02344 10C4.33073 10 3.67969 9.86979 3.07031 9.60938C2.46094 9.34896 1.92969 8.99479 1.47656 8.54688C1.02344 8.09896 0.664062 7.57031 0.398438 6.96094C0.132812 6.35156 0 5.69792 0 5C0 4.54167 0.0598958 4.09896 0.179688 3.67188C0.299479 3.24479 0.466146 2.84635 0.679688 2.47656C0.893229 2.10677 1.15365 1.77083 1.46094 1.46875C1.76823 1.16667 2.10677 0.90625 2.47656 0.6875C2.84635 0.46875 3.24479 0.299479 3.67188 0.179688C4.09896 0.0598958 4.54167 0 5 0C5.46354 0 5.90885 0.0598958 6.33594 0.179688C6.76302 0.299479 7.16146 0.46875 7.53125 0.6875C7.90104 0.90625 8.23698 1.16667 8.53906 1.46875C8.84115 1.77083 9.10156 2.10938 9.32031 2.48438C9.53906 2.85938 9.70573 3.26042 9.82031 3.6875C9.9349 4.11458 9.99479 4.5599 10 5.02344C10.1615 5.00781 10.3281 5 10.5 5ZM5 9C5.03646 9 5.07292 8.9974 5.10938 8.99219C5.14583 8.98698 5.18229 8.98177 5.21875 8.97656C5.3125 8.64844 5.4349 8.33594 5.58594 8.03906C5.73698 7.74219 5.91667 7.45573 6.125 7.17969C5.94271 7.1224 5.75781 7.07812 5.57031 7.04688C5.38281 7.01562 5.19271 7 5 7C4.68229 7 4.3724 7.03906 4.07031 7.11719C3.76823 7.19531 3.47396 7.30729 3.1875 7.45312L2.73438 6.5625C3.08854 6.38542 3.45573 6.2474 3.83594 6.14844C4.21615 6.04948 4.60417 6 5 6C5.32292 6 5.63802 6.03385 5.94531 6.10156C6.2526 6.16927 6.55729 6.26302 6.85938 6.38281C7.16667 6.11198 7.4974 5.8776 7.85156 5.67969C8.20573 5.48177 8.58073 5.32812 8.97656 5.21875L8.99219 5.10938C8.9974 5.07292 9 5.03646 9 5C9 4.44792 8.89583 3.92969 8.6875 3.44531C8.47917 2.96094 8.19271 2.53906 7.82812 2.17969C7.46354 1.82031 7.03906 1.53385 6.55469 1.32031C6.07031 1.10677 5.55208 1 5 1C4.44792 1 3.92969 1.10417 3.44531 1.3125C2.96094 1.52083 2.53906 1.80729 2.17969 2.17188C1.82031 2.53646 1.53385 2.96094 1.32031 3.44531C1.10677 3.92969 1 4.44792 1 5C1 5.55208 1.10417 6.07031 1.3125 6.55469C1.52083 7.03906 1.80729 7.46094 2.17188 7.82031C2.53646 8.17969 2.96094 8.46615 3.44531 8.67969C3.92969 8.89323 4.44792 9 5 9ZM10.5 15C11.1198 15 11.7031 14.8828 12.25 14.6484C12.7969 14.4141 13.2734 14.0911 13.6797 13.6797C14.0859 13.2682 14.4062 12.7917 14.6406 12.25C14.875 11.7083 14.9948 11.125 15 10.5C15 9.88021 14.8828 9.29688 14.6484 8.75C14.4141 8.20312 14.0911 7.72656 13.6797 7.32031C13.2682 6.91406 12.7917 6.59375 12.25 6.35938C11.7083 6.125 11.125 6.00521 10.5 6C9.88021 6 9.29688 6.11719 8.75 6.35156C8.20312 6.58594 7.72656 6.90885 7.32031 7.32031C6.91406 7.73177 6.59375 8.20833 6.35938 8.75C6.125 9.29167 6.00521 9.875 6 10.5C6 11.1198 6.11719 11.7031 6.35156 12.25C6.58594 12.7969 6.90885 13.2734 7.32031 13.6797C7.73177 14.0859 8.20833 14.4062 8.75 14.6406C9.29167 14.875 9.875 14.9948 10.5 15ZM12.5 10.25C12.2917 10.25 12.1146 10.1771 11.9688 10.0312C11.8229 9.88542 11.75 9.70833 11.75 9.5C11.75 9.29167 11.8229 9.11458 11.9688 8.96875C12.1146 8.82292 12.2917 8.75 12.5 8.75C12.7083 8.75 12.8854 8.82292 13.0312 8.96875C13.1771 9.11458 13.25 9.29167 13.25 9.5C13.25 9.70833 13.1771 9.88542 13.0312 10.0312C12.8854 10.1771 12.7083 10.25 12.5 10.25ZM8.5 10.25C8.29167 10.25 8.11458 10.1771 7.96875 10.0312C7.82292 9.88542 7.75 9.70833 7.75 9.5C7.75 9.29167 7.82292 9.11458 7.96875 8.96875C8.11458 8.82292 8.29167 8.75 8.5 8.75C8.70833 8.75 8.88542 8.82292 9.03125 8.96875C9.17708 9.11458 9.25 9.29167 9.25 9.5C9.25 9.70833 9.17708 9.88542 9.03125 10.0312C8.88542 10.1771 8.70833 10.25 8.5 10.25ZM10.5 13C10.724 13 10.9427 12.9714 11.1562 12.9141C11.3698 12.8568 11.5703 12.7708 11.7578 12.6562C11.9453 12.5417 12.1172 12.4062 12.2734 12.25C12.4297 12.0938 12.5625 11.9167 12.6719 11.7188L13.5391 12.2109C13.3828 12.487 13.1953 12.7344 12.9766 12.9531C12.7578 13.1719 12.5182 13.3594 12.2578 13.5156C11.9974 13.6719 11.7188 13.7917 11.4219 13.875C11.125 13.9583 10.8177 14 10.5 14C10.1823 14 9.875 13.9583 9.57812 13.875C9.28125 13.7917 9.0026 13.6745 8.74219 13.5234C8.48177 13.3724 8.24219 13.1849 8.02344 12.9609C7.80469 12.737 7.61719 12.487 7.46094 12.2109L8.32812 11.7188C8.4375 11.9167 8.57031 12.0938 8.72656 12.25C8.88281 12.4062 9.05469 12.5391 9.24219 12.6484C9.42969 12.7578 9.6276 12.8438 9.83594 12.9062C10.0443 12.9688 10.2656 13 10.5 13ZM3.5 4.125C3.32812 4.125 3.18229 4.0651 3.0625 3.94531C2.94271 3.82552 2.88021 3.67708 2.875 3.5C2.875 3.32812 2.9349 3.18229 3.05469 3.0625C3.17448 2.94271 3.32292 2.88021 3.5 2.875C3.67188 2.875 3.81771 2.9349 3.9375 3.05469C4.05729 3.17448 4.11979 3.32292 4.125 3.5C4.125 3.67188 4.0651 3.81771 3.94531 3.9375C3.82552 4.05729 3.67708 4.11979 3.5 4.125ZM6.5 4.125C6.32812 4.125 6.18229 4.0651 6.0625 3.94531C5.94271 3.82552 5.88021 3.67708 5.875 3.5C5.875 3.32812 5.9349 3.18229 6.05469 3.0625C6.17448 2.94271 6.32292 2.88021 6.5 2.875C6.67188 2.875 6.81771 2.9349 6.9375 3.05469C7.05729 3.17448 7.11979 3.32292 7.125 3.5C7.125 3.67188 7.0651 3.81771 6.94531 3.9375C6.82552 4.05729 6.67708 4.11979 6.5 4.125Z" fill="#1A1A1A"/>
  </g>
  <defs>
    <clipPath id="clip0_3160_975">
      <rect width="16" height="16" fill="white"/>
    </clipPath>
  </defs>
</svg>