<svg width="64" height="64" viewBox="0 0 64 64" fill="none" xmlns="http://www.w3.org/2000/svg">
<rect width="64" height="64" rx="32" fill="#ECEFF4"/>
<path d="M33.3333 19.5H22.6667C21.9594 19.5 21.2811 19.781 20.781 20.281C20.281 20.7811 20 21.4594 20 22.1667V43.5C20 44.2072 20.281 44.8855 20.781 45.3856C21.2811 45.8857 21.9594 46.1667 22.6667 46.1667H38.6667C39.3739 46.1667 40.0522 45.8857 40.5523 45.3856C41.0524 44.8855 41.3333 44.2072 41.3333 43.5V27.5L33.3333 19.5Z" fill="#A2A2A2" stroke="#A2A2A2" stroke-width="2.2" stroke-linecap="round" stroke-linejoin="round"/>
<path d="M33.332 19.5V27.5H41.332" stroke="#ECEFF4" stroke-width="2.2" stroke-linecap="square" stroke-linejoin="round"/>
<path d="M35.9987 34.166H25.332" stroke="#ECEFF4" stroke-width="2.2" stroke-linecap="round" stroke-linejoin="round"/>
<path d="M30 39.5H25.332" stroke="#ECEFF4" stroke-width="2.2" stroke-linecap="round" stroke-linejoin="round"/>
<path d="M27.9987 28.834H26.6654H25.332" stroke="#ECEFF4" stroke-width="2.2" stroke-linecap="round" stroke-linejoin="round"/>
<g clip-path="url(#clip0_2750_37212)">
<path d="M53.2853 25.3434L53.2944 25.352L53.4144 25.4645L53.4233 25.4727L53.4318 25.4813L54.0209 26.0704L54.0209 26.0704C54.604 26.6536 54.9436 27.4367 54.9707 28.261C54.9979 29.0853 54.7106 29.889 54.1672 30.5094L54.1588 30.5189L54.1502 30.5281L54.0377 30.6481L54.0294 30.6569L54.0209 30.6654L44.6791 40.0081L44.679 40.0081C44.4677 40.2195 44.2117 40.3807 43.9298 40.4801L43.9098 40.4871L43.8894 40.493L43.7545 40.5322L43.7345 40.538L43.7142 40.5427L40.0043 41.3989C40.0041 41.399 40.0039 41.399 40.0037 41.3991L53.2853 25.3434ZM53.2853 25.3434L53.2758 25.3351C52.6555 24.7914 51.8515 24.5039 51.0269 24.5311C50.2024 24.5582 49.4191 24.898 48.8358 25.4814L53.2853 25.3434ZM41.7573 37.7446L41.9692 36.8256L48.7773 30.0175L49.4844 30.7243L42.6765 37.5323L41.7573 37.7446ZM51.1394 27.6959C51.1596 27.6972 51.1787 27.7058 51.193 27.7201C51.193 27.7201 51.193 27.7201 51.193 27.7201L51.7656 28.2927L51.7953 28.3264C51.8034 28.3405 51.8073 28.3567 51.8062 28.3731C51.805 28.3933 51.7964 28.4123 51.7821 28.4267C51.7821 28.4267 51.7821 28.4267 51.782 28.4267L51.7232 28.4855L51.0164 27.7791L51.0589 27.7367L51.0927 27.7068C51.1068 27.6987 51.123 27.6949 51.1394 27.6959Z" fill="#A2A2A2" stroke="#ECEFF4" stroke-width="1.5"/>
</g>
<defs>
<clipPath id="clip0_2750_37212">
<rect width="20" height="20" fill="white" transform="translate(36 23.5)"/>
</clipPath>
</defs>
</svg>
