<svg width="64" height="65" viewBox="0 0 64 65" fill="none" xmlns="http://www.w3.org/2000/svg">
<rect y="0.140625" width="64" height="64" rx="32" fill="#F2F4F8"/>
<path d="M33.3333 19.6406H22.6667C21.9594 19.6406 21.2811 19.9216 20.781 20.4217C20.281 20.9218 20 21.6 20 22.3073V43.6406C20 44.3479 20.281 45.0261 20.781 45.5262C21.2811 46.0263 21.9594 46.3073 22.6667 46.3073H38.6667C39.3739 46.3073 40.0522 46.0263 40.5523 45.5262C41.0524 45.0261 41.3333 44.3479 41.3333 43.6406V27.6406L33.3333 19.6406Z" fill="#B1B1B1" stroke="#B1B1B1" stroke-width="2.2" stroke-linecap="round" stroke-linejoin="round"/>
<path d="M33.332 19.6406V27.6406H41.332" stroke="#F2F4F8" stroke-width="2.2" stroke-linecap="square" stroke-linejoin="round"/>
<path d="M35.9987 34.3066H25.332" stroke="#F2F4F8" stroke-width="2.2" stroke-linecap="round" stroke-linejoin="round"/>
<path d="M30 39.6406H25.332" stroke="#F2F4F8" stroke-width="2.2" stroke-linecap="round" stroke-linejoin="round"/>
<path d="M27.9987 28.9746H26.6654H25.332" stroke="#F2F4F8" stroke-width="2.2" stroke-linecap="round" stroke-linejoin="round"/>
<g clip-path="url(#clip0_2750_37175)">
<path d="M53.2853 25.484L53.2944 25.4926L53.4144 25.6051L53.4233 25.6134L53.4318 25.6219L54.0209 26.211L54.0209 26.211C54.604 26.7943 54.9436 27.5774 54.9707 28.4016C54.9979 29.2259 54.7106 30.0297 54.1672 30.65L54.1588 30.6595L54.1502 30.6687L54.0377 30.7887L54.0294 30.7975L54.0209 30.8061L44.6791 40.1487L44.679 40.1487C44.4677 40.3601 44.2117 40.5213 43.9298 40.6207L43.9098 40.6277L43.8894 40.6336L43.7545 40.6728L43.7345 40.6786L43.7142 40.6833L40.0043 41.5395C40.0041 41.5396 40.0039 41.5396 40.0037 41.5397L53.2853 25.484ZM53.2853 25.484L53.2758 25.4758C52.6555 24.932 51.8515 24.6445 51.0269 24.6717C50.2024 24.6988 49.4191 25.0386 48.8358 25.622L53.2853 25.484ZM41.7573 37.8852L41.9692 36.9662L48.7773 30.1581L49.4844 30.8649L42.6765 37.6729L41.7573 37.8852ZM51.1394 27.8365C51.1596 27.8378 51.1787 27.8464 51.193 27.8607C51.193 27.8607 51.193 27.8607 51.193 27.8607L51.7656 28.4333L51.7953 28.467C51.8034 28.4811 51.8073 28.4973 51.8062 28.5137C51.805 28.5339 51.7964 28.553 51.7821 28.5673C51.7821 28.5673 51.7821 28.5673 51.782 28.5673L51.7232 28.6261L51.0164 27.9197L51.0589 27.8774L51.0927 27.8475C51.1068 27.8394 51.123 27.8355 51.1394 27.8365Z" fill="#B1B1B1" stroke="#F2F4F8" stroke-width="1.5"/>
</g>
<defs>
<clipPath id="clip0_2750_37175">
<rect width="20" height="20" fill="white" transform="translate(36 23.6406)"/>
</clipPath>
</defs>
</svg>
