<svg width="55" height="38" viewBox="0 0 55 38" fill="none" xmlns="http://www.w3.org/2000/svg">
<path d="M7.59999 30.4C6.81624 30.4 6.14554 30.1212 5.58789 29.5635C5.03024 29.0059 4.75094 28.3347 4.74999 27.55V10.45C4.74999 9.66626 5.02929 8.99556 5.58789 8.43791C6.14649 7.88026 6.81719 7.60096 7.59999 7.60001H16.15L19 10.45H30.4C31.1837 10.45 31.8549 10.7293 32.4135 11.2879C32.9721 11.8465 33.2509 12.5172 33.25 13.3V27.55C33.25 28.3338 32.9712 29.0049 32.4135 29.5635C31.8559 30.1221 31.1847 30.401 30.4 30.4H7.59999Z" stroke="#C4C4C4" stroke-width="2" stroke-linecap="round" stroke-linejoin="round"/>
<g clip-path="url(#clip0_725_6102)">
<path fill-rule="evenodd" clip-rule="evenodd" d="M48 12C48.5523 12 49 12.4477 49 13V18H54C54.5523 18 55 18.4477 55 19C55 19.5523 54.5523 20 54 20H49V25C49 25.5523 48.5523 26 48 26C47.4477 26 47 25.5523 47 25V20H42C41.4477 20 41 19.5523 41 19C41 18.4477 41.4477 18 42 18H47V13C47 12.4477 47.4477 12 48 12Z" fill="#C4C4C4"/>
</g>
<defs>
<clipPath id="clip0_725_6102">
<rect width="14" height="14" fill="white" transform="translate(41 12)"/>
</clipPath>
</defs>
</svg>
