<svg width="48" height="48" viewBox="0 0 48 48" fill="none" xmlns="http://www.w3.org/2000/svg">
<g id="ic_archive_innerfolder_48">
<g id="Vector">
<path d="M9.6 38.4C8.61 38.4 7.7628 38.0478 7.0584 37.3434C6.354 36.639 6.0012 35.7912 6 34.8V13.2C6 12.21 6.3528 11.3628 7.0584 10.6584C7.764 9.95398 8.6112 9.60118 9.6 9.59998H26.0667L29.6667 13.2H38.4C39.39 13.2 40.2378 13.5528 40.9434 14.2584C41.649 14.964 42.0012 15.8112 42 16.8V34.8C42 35.79 41.6478 36.6378 40.9434 37.3434C40.239 38.049 39.3912 38.4012 38.4 38.4H9.6Z" fill="#77CEC6"/>
<path d="M9.6 38.4C8.61 38.4 7.7628 38.0478 7.0584 37.3434C6.354 36.639 6.0012 35.7912 6 34.8V13.2C6 12.21 6.3528 11.3628 7.0584 10.6584C7.764 9.95398 8.6112 9.60118 9.6 9.59998H26.0667L29.6667 13.2H38.4C39.39 13.2 40.2378 13.5528 40.9434 14.2584C41.649 14.964 42.0012 15.8112 42 16.8V34.8C42 35.79 41.6478 36.6378 40.9434 37.3434C40.239 38.049 39.3912 38.4012 38.4 38.4H9.6Z" fill="black" fill-opacity="0.15"/>
</g>
<path id="Vector_2" d="M9.6 38.4C8.61 38.4 7.7628 38.0478 7.0584 37.3434C6.354 36.639 6.0012 35.7912 6 34.8V13.2C6 12.21 6.3528 11.3628 7.0584 10.6584C7.764 9.95398 8.6112 9.60118 9.6 9.59998H20.4L24 13.2H38.4C39.39 13.2 40.2378 13.5528 40.9434 14.2584C41.649 14.964 42.0012 15.8112 42 16.8V34.8C42 35.79 41.6478 36.6378 40.9434 37.3434C40.239 38.049 39.3912 38.4012 38.4 38.4H9.6Z" fill="#77CEC6"/>
</g>
</svg>
