<svg width="32" height="32" viewBox="0 0 32 32" fill="none" xmlns="http://www.w3.org/2000/svg">
<path d="M8.34276 28.8C7.68759 28.8 7.14098 28.581 6.70294 28.1429C6.26489 27.7049 6.0454 27.1583 6.04445 26.5031V5.49689C6.04445 4.84266 6.26394 4.29653 6.70294 3.85849C7.14193 3.42044 7.68854 3.20095 8.34276 3.2H19.1413C19.4066 3.2 19.6609 3.30535 19.8485 3.49289L25.6627 9.3071C25.8502 9.49464 25.9556 9.74899 25.9556 10.0142V26.5031C25.9556 27.1573 25.7365 27.7039 25.2985 28.1429C24.8604 28.5819 24.3134 28.8009 23.6572 28.8H8.34276ZM18.8444 10.3111H24.2919C24.381 10.3111 24.4256 10.2034 24.3626 10.1404L19.0152 4.79293C18.9522 4.72993 18.8444 4.77455 18.8444 4.86364V10.3111Z" fill="#AECA99"/>
</svg>
