<svg width="101" height="34" viewBox="0 0 101 34" fill="none" xmlns="http://www.w3.org/2000/svg">
<rect width="101" height="34" rx="8" fill="#F7F7F7"/>
<path d="M19.8 15.3636L24.9819 20.8181L30.1637 15.3636" stroke="#747474" stroke-width="1.5" stroke-linecap="square"/>
<path d="M49.1338 11.2627V12.5957H44.7246V18.7627C46.79 18.748 48.2476 18.6602 49.8955 18.3525L50.0713 19.6709C48.2109 20.0371 46.6143 20.1104 44.1387 20.1104H43.084V11.2627H49.1338ZM53.5576 10.0615V23.3184H51.9316V16.0527H48.4307V14.7197H51.9316V10.0615H53.5576ZM67.5029 20.374V21.707H55.4033V20.374H60.6182V17.7959H56.7363V10.9404H58.3623V13.1084H64.5V10.9404H66.126V17.7959H62.2295V20.374H67.5029ZM58.3623 16.4775H64.5V14.4121H58.3623V16.4775ZM79.4268 10.0615V23.3037H77.7861V10.0615H79.4268ZM75.4717 11.4678C75.4717 15.4082 73.9482 18.7627 69.3047 20.96L68.4551 19.6562C71.9194 18.0083 73.5308 15.7671 73.8164 12.7568H69.1289V11.4678H75.4717Z" fill="#747474"/>
</svg>
