<svg width="32" height="32" viewBox="0 0 32 32" fill="none" xmlns="http://www.w3.org/2000/svg">
<g id="ic_common_star_grey_32">
<path id="Vector" d="M16.2327 19.6606C16.087 19.584 15.913 19.584 15.7674 19.6606L11.7257 21.7852L12.4977 17.2845C12.5255 17.1222 12.4717 16.9567 12.3538 16.8418L9.08277 13.6546L13.6016 12.9979C13.7644 12.9743 13.9052 12.872 13.978 12.7245L16 8.62878L18.0213 12.7244C18.0941 12.872 18.2349 12.9743 18.3977 12.9979L22.9167 13.6546L19.6463 16.8419C19.5284 16.9568 19.4746 17.1223 19.5025 17.2845L20.2751 21.7852L16.2327 19.6606ZM11.6572 22.1846L11.6573 22.1843L11.6572 22.1846ZM8.68165 13.7129L8.68208 13.7128C8.68194 13.7129 8.68179 13.7129 8.68165 13.7129L8.65289 13.515L8.68165 13.7129ZM23.3177 13.7129C23.3176 13.7129 23.3175 13.7129 23.3174 13.7129L23.3177 13.7129ZM20.3436 22.1846C20.3436 22.1845 20.3436 22.1844 20.3436 22.1843L20.3436 22.1846Z" stroke="#B1B1B1" stroke-linejoin="round"/>
</g>
</svg>
