<svg width="32" height="32" viewBox="0 0 32 32" fill="none" xmlns="http://www.w3.org/2000/svg">
<path fill-rule="evenodd" clip-rule="evenodd" d="M14.5842 9.41044C14.5842 9.03621 14.7329 8.6773 14.9975 8.41268C15.2621 8.14805 15.621 7.99939 15.9953 7.99939H16.0047C16.3789 7.99939 16.7378 8.14805 17.0025 8.41268C17.2671 8.6773 17.4157 9.03621 17.4157 9.41044V9.41985C17.4157 9.79408 17.2671 10.153 17.0025 10.4176C16.7378 10.6822 16.3789 10.8309 16.0047 10.8309H15.9953C15.621 10.8309 15.2621 10.6822 14.9975 10.4176C14.7329 10.153 14.5842 9.79408 14.5842 9.41985V9.41044ZM14.5842 15.9953C14.5842 15.6211 14.7329 15.2622 14.9975 14.9976C15.2621 14.733 15.621 14.5843 15.9953 14.5843H16.0047C16.3789 14.5843 16.7378 14.733 17.0025 14.9976C17.2671 15.2622 17.4157 15.6211 17.4157 15.9953V16.0048C17.4157 16.379 17.2671 16.7379 17.0025 17.0025C16.7378 17.2671 16.3789 17.4158 16.0047 17.4158H15.9953C15.621 17.4158 15.2621 17.2671 14.9975 17.0025C14.7329 16.7379 14.5842 16.379 14.5842 16.0048V15.9953ZM15.9953 21.1692C15.621 21.1692 15.2621 21.3179 14.9975 21.5825C14.7329 21.8471 14.5842 22.206 14.5842 22.5803V22.5897C14.5842 22.9639 14.7329 23.3228 14.9975 23.5874C15.2621 23.852 15.621 24.0007 15.9953 24.0007H16.0047C16.3789 24.0007 16.7378 23.852 17.0025 23.5874C17.2671 23.3228 17.4157 22.9639 17.4157 22.5897V22.5803C17.4157 22.206 17.2671 21.8471 17.0025 21.5825C16.7378 21.3179 16.3789 21.1692 16.0047 21.1692H15.9953Z" fill="#B1B1B1"/>
</svg>
