<svg width="32" height="32" viewBox="0 0 32 32" fill="none" xmlns="http://www.w3.org/2000/svg">
<g id="ic_common_flashcard_32">
<path id="Rectangle 383" d="M8.84115 9.87705L8.99323 9.07764L9.60156 5.88L28.5914 9.33923L26.158 22.1298L23.7843 21.6974L23.1909 21.5893" stroke="#B1B1B1" stroke-width="2.2" stroke-linecap="round" stroke-linejoin="round"/>
<rect id="Rectangle 382" x="3.40918" y="10.7646" width="19.25" height="14.96" stroke="#B1B1B1" stroke-width="2.2" stroke-linecap="round" stroke-linejoin="round"/>
<path id="Subtract" fill-rule="evenodd" clip-rule="evenodd" d="M3.40918 10.7646H22.6592V25.7246H3.40918V10.7646ZM6.90918 16.7047C6.90918 16.0972 7.40167 15.6047 8.00918 15.6047H18.0592C18.6667 15.6047 19.1592 16.0972 19.1592 16.7047C19.1592 17.3122 18.6667 17.8047 18.0592 17.8047H8.00918C7.40167 17.8047 6.90918 17.3122 6.90918 16.7047ZM8.00918 19.1252C7.40167 19.1252 6.90918 19.6177 6.90918 20.2252C6.90918 20.8327 7.40167 21.3252 8.00918 21.3252H14.5592C15.1667 21.3252 15.6592 20.8327 15.6592 20.2252C15.6592 19.6177 15.1667 19.1252 14.5592 19.1252H8.00918Z" fill="#B1B1B1"/>
</g>
</svg>
