<svg xmlns="http://www.w3.org/2000/svg" width="62" height="62" viewBox="0 0 62 62" fill="none">
  <g clip-path="url(#clip0_3635_36941)">
    <path d="M55.2865 21.8269C56.3492 25.7981 55.7909 30.0287 53.7343 33.5881C51.6778 37.1476 48.2914 39.7443 44.3203 40.807L39.8284 42.0091C39.0797 42.2094 38.7515 43.1097 39.2358 44.0784C39.7202 45.0471 41.5963 46.617 41.997 48.1143C43.1815 51.5412 41.1711 55.0209 37.6773 55.9559C34.4002 56.8329 30.9824 57.0558 27.619 56.6119C24.2557 56.168 21.0128 55.066 18.0753 53.3689C12.1429 49.9412 7.81509 44.2974 6.04392 37.6788C4.27275 31.0603 5.20333 24.0093 8.63093 18.0768C12.0585 12.1444 17.7024 7.8166 24.3209 6.04544C34.3497 3.36166 44.4723 6.36372 50.5 13.0429M15.9381 29.6826C17.9345 29.1484 20.1489 30.4278 20.6831 32.4242C21.2174 34.4206 19.938 36.6349 17.9416 37.1692C15.9452 37.7034 13.7308 36.424 13.1966 34.4276C12.6623 32.4312 13.9417 30.2169 15.9381 29.6826ZM20.7534 17.6971C22.7498 17.1628 24.9642 18.4422 25.4984 20.4386C26.0327 22.435 24.7533 24.6494 22.7569 25.1836C20.7605 25.7179 18.5461 24.4385 18.0119 22.4421C17.4776 20.4457 18.757 18.2313 20.7534 17.6971ZM33.231 14.358C35.2274 13.8237 37.4418 15.1031 37.976 17.0995C38.5103 19.0959 37.2309 21.3103 35.2345 21.8445C33.2381 22.3788 31.0237 21.0994 30.4895 19.103C29.9552 17.1066 31.2346 14.8922 33.231 14.358Z" stroke="#6A9CFC" stroke-width="2.65"/>
    <path d="M56.5673 13.5292L56.5675 13.5295C57.3936 14.357 57.8583 15.4796 57.8588 16.6506C57.8594 17.819 57.3978 18.9396 56.5759 19.7674L39.1737 36.7892L39.1667 36.796L39.1599 36.8029C39.1129 36.8502 39.0571 36.8877 38.9957 36.9133L39.5052 38.1364L38.9957 36.9133C38.9344 36.9388 38.8687 36.952 38.8024 36.952C38.7361 36.952 38.6704 36.9388 38.609 36.9133L38.0996 38.1364L38.609 36.9133C38.5477 36.8877 38.4919 36.8502 38.4448 36.8029L38.4422 36.8002L32.9353 31.2851C32.9352 31.285 32.9352 31.285 32.9351 31.2849C32.8393 31.1888 32.785 31.0581 32.785 30.9214C32.785 30.7865 32.8379 30.6574 32.9314 30.5616L50.3328 13.5406L50.3386 13.5349L50.3443 13.5292C51.989 11.8806 54.9225 11.8806 56.5673 13.5292ZM26.111 45.8967C25.6836 45.7867 25.28 45.6489 24.9132 45.5029C25.6445 44.8642 26.1014 44.1619 26.3163 43.3434C26.4861 42.6968 26.4742 42.0769 26.4434 41.5655C26.4319 41.3744 26.4187 41.2043 26.4062 41.0436C26.3816 40.7261 26.3598 40.4455 26.3598 40.1135C26.3598 38.8651 27.0145 38.0841 27.9301 37.6629C28.9185 37.2083 30.1 37.2367 30.8653 37.6208C32.1777 38.2801 32.7936 39.4964 32.8441 40.8917C32.8962 42.3319 32.3274 43.8036 31.4399 44.6925C29.8355 46.2992 27.8751 46.351 26.111 45.8967Z" stroke="#6A9CFC" stroke-width="2.65"/>
  </g>
  <defs>
    <clipPath id="clip0_3635_36941">
      <rect width="62" height="62" fill="white"/>
    </clipPath>
  </defs>
</svg>