<svg width="88" height="88" viewBox="0 0 88 88" fill="none" xmlns="http://www.w3.org/2000/svg">
<g clip-path="url(#clip0_3635_36861)">
<path d="M68.2865 34.8269C69.3492 38.7981 68.7909 43.0287 66.7343 46.5881C64.6778 50.1476 61.2914 52.7443 57.3203 53.807L52.8284 55.0091C52.0797 55.2094 51.7515 56.1097 52.2358 57.0784C52.7202 58.0471 54.5963 59.617 54.997 61.1143C56.1815 64.5412 54.1711 68.0209 50.6773 68.9559C47.4002 69.8329 43.9824 70.0558 40.619 69.6119C37.2557 69.168 34.0128 68.066 31.0753 66.3689C25.1429 62.9412 20.8151 57.2974 19.0439 50.6788C17.2728 44.0603 18.2033 37.0093 21.6309 31.0768C25.0585 25.1444 30.7024 20.8166 37.3209 19.0454C47.3497 16.3617 57.4723 19.3637 63.5 26.0429M28.9381 42.6826C30.9345 42.1484 33.1489 43.4278 33.6831 45.4242C34.2174 47.4206 32.938 49.6349 30.9416 50.1692C28.9452 50.7034 26.7308 49.424 26.1966 47.4276C25.6623 45.4312 26.9417 43.2169 28.9381 42.6826ZM33.7534 30.6971C35.7498 30.1628 37.9642 31.4422 38.4984 33.4386C39.0327 35.435 37.7533 37.6494 35.7569 38.1836C33.7605 38.7179 31.5461 37.4385 31.0119 35.4421C30.4776 33.4457 31.757 31.2313 33.7534 30.6971ZM46.231 27.358C48.2274 26.8237 50.4418 28.1031 50.976 30.0995C51.5103 32.0959 50.2309 34.3103 48.2345 34.8445C46.2381 35.3788 44.0237 34.0994 43.4895 32.103C42.9552 30.1066 44.2346 27.8922 46.231 27.358Z" stroke="#6A9CFC" stroke-width="2.65"/>
<path d="M69.5673 26.5292L69.5675 26.5295C70.3936 27.357 70.8583 28.4796 70.8588 29.6506C70.8594 30.819 70.3978 31.9396 69.5759 32.7674L52.1737 49.7892L52.1667 49.796L52.1599 49.8029C52.1129 49.8502 52.0571 49.8877 51.9957 49.9133L52.5052 51.1364L51.9957 49.9133C51.9344 49.9388 51.8687 49.952 51.8024 49.952C51.7361 49.952 51.6704 49.9388 51.609 49.9133L51.0996 51.1364L51.609 49.9133C51.5477 49.8877 51.4919 49.8502 51.4448 49.8029L51.4422 49.8002L45.9353 44.2851C45.9352 44.285 45.9352 44.285 45.9351 44.2849C45.8393 44.1888 45.785 44.0581 45.785 43.9214C45.785 43.7865 45.8379 43.6574 45.9314 43.5616L63.3328 26.5406L63.3386 26.5349L63.3443 26.5292C64.989 24.8806 67.9225 24.8806 69.5673 26.5292ZM39.111 58.8967C38.6836 58.7867 38.28 58.6489 37.9132 58.5029C38.6445 57.8642 39.1014 57.1619 39.3163 56.3434C39.4861 55.6968 39.4742 55.0769 39.4434 54.5655C39.4319 54.3744 39.4187 54.2043 39.4062 54.0436C39.3816 53.7261 39.3598 53.4455 39.3598 53.1135C39.3598 51.8651 40.0145 51.0841 40.9301 50.6629C41.9185 50.2083 43.1 50.2367 43.8653 50.6208C45.1777 51.2801 45.7936 52.4964 45.8441 53.8917C45.8962 55.3319 45.3274 56.8036 44.4399 57.6925C42.8355 59.2992 40.8751 59.351 39.111 58.8967Z" stroke="#6A9CFC" stroke-width="2.65"/>
</g>
<defs>
<clipPath id="clip0_3635_36861">
<rect width="62" height="62" fill="white" transform="translate(13 13)"/>
</clipPath>
</defs>
</svg>
