<svg xmlns="http://www.w3.org/2000/svg" width="60" height="55" viewBox="0 0 60 55" fill="none">
  <rect x="1.32692" y="1.82692" width="57.3462" height="37.3462" rx="2.67308" stroke="#6A9CFC" stroke-width="2.65385" stroke-linecap="round" stroke-linejoin="round"/>
  <path d="M14.0512 47.5H45.9488C50.354 47.5 54.4677 49.7016 56.9113 53.367C56.9492 53.4238 56.9085 53.5 56.8401 53.5H3.15986C3.09153 53.5 3.05077 53.4238 3.08867 53.367C5.53225 49.7016 9.64602 47.5 14.0512 47.5Z" stroke="#6A9CFC" stroke-width="2.65385" stroke-linecap="round" stroke-linejoin="round"/>
  <path d="M19 39.5V46.5M41 39.5V46.5" stroke="#6A9CFC" stroke-width="2.65385" stroke-linecap="round" stroke-linejoin="round"/>
  <path fill-rule="evenodd" clip-rule="evenodd" d="M30 30.25C30.345 30.25 31.2645 29.911 32.2305 27.979C32.6895 27.061 33.075 25.924 33.3435 24.625H26.6565C26.925 25.924 27.3105 27.061 27.7695 27.979C28.7355 29.911 29.655 30.25 30 30.25ZM26.331 22.375C26.2223 21.1274 26.2223 19.8726 26.331 18.625H33.669C33.777 19.8727 33.777 21.1273 33.669 22.375H26.331ZM35.6355 24.625C35.2995 26.461 34.746 28.087 34.0365 29.377C36.1493 28.4122 37.8505 26.728 38.8365 24.625H35.6355ZM39.57 22.375H35.925C36.0228 21.1269 36.0228 19.8731 35.925 18.625H39.5685C39.8111 19.8632 39.8111 21.1368 39.5685 22.375H39.57ZM24.0735 22.375H20.43C20.1874 21.1368 20.1874 19.8632 20.43 18.625H24.075C23.9772 19.8731 23.9772 21.1269 24.075 22.375H24.0735ZM21.1635 24.625H24.3645C24.7005 26.461 25.254 28.087 25.9635 29.377C23.8507 28.4122 22.1495 26.728 21.1635 24.625ZM26.6565 16.375H33.3435C33.075 15.076 32.6895 13.939 32.2305 13.021C31.2645 11.089 30.345 10.75 30 10.75C29.655 10.75 28.7355 11.089 27.7695 13.021C27.3105 13.939 26.925 15.076 26.6565 16.375ZM35.6355 16.375H38.8365C37.8505 14.272 36.1493 12.5878 34.0365 11.623C34.746 12.913 35.2995 14.539 35.6355 16.375ZM25.965 11.623C25.2555 12.913 24.702 14.539 24.366 16.375H21.1635C22.1495 14.272 23.8522 12.5878 25.965 11.623ZM30 8.5C33.1826 8.5 36.2348 9.76428 38.4853 12.0147C40.7357 14.2652 42 17.3174 42 20.5C42 23.6826 40.7357 26.7348 38.4853 28.9853C36.2348 31.2357 33.1826 32.5 30 32.5C26.8174 32.5 23.7652 31.2357 21.5147 28.9853C19.2643 26.7348 18 23.6826 18 20.5C18 17.3174 19.2643 14.2652 21.5147 12.0147C23.7652 9.76428 26.8174 8.5 30 8.5Z" fill="#6A9CFC"/>
</svg>