<svg width="88" height="88" viewBox="0 0 88 88" fill="none" xmlns="http://www.w3.org/2000/svg">
<rect x="15.3269" y="18.8269" width="57.3462" height="37.3462" rx="2.67308" stroke="#6A9CFC" stroke-width="2.65385" stroke-linecap="round" stroke-linejoin="round"/>
<path d="M28.0512 64.5H59.9488C64.354 64.5 68.4677 66.7016 70.9113 70.367C70.9492 70.4238 70.9085 70.5 70.8401 70.5H17.1599C17.0915 70.5 17.0508 70.4238 17.0887 70.367C19.5323 66.7016 23.646 64.5 28.0512 64.5Z" stroke="#6A9CFC" stroke-width="2.65385" stroke-linecap="round" stroke-linejoin="round"/>
<path d="M33 56.5V63.5M55 56.5V63.5" stroke="#6A9CFC" stroke-width="2.65385" stroke-linecap="round" stroke-linejoin="round"/>
<path fill-rule="evenodd" clip-rule="evenodd" d="M44 47.25C44.345 47.25 45.2645 46.911 46.2305 44.979C46.6895 44.061 47.075 42.924 47.3435 41.625H40.6565C40.925 42.924 41.3105 44.061 41.7695 44.979C42.7355 46.911 43.655 47.25 44 47.25ZM40.331 39.375C40.2223 38.1274 40.2223 36.8726 40.331 35.625H47.669C47.777 36.8727 47.777 38.1273 47.669 39.375H40.331ZM49.6355 41.625C49.2995 43.461 48.746 45.087 48.0365 46.377C50.1493 45.4122 51.8505 43.728 52.8365 41.625H49.6355ZM53.57 39.375H49.925C50.0228 38.1269 50.0228 36.8731 49.925 35.625H53.5685C53.8111 36.8632 53.8111 38.1368 53.5685 39.375H53.57ZM38.0735 39.375H34.43C34.1874 38.1368 34.1874 36.8632 34.43 35.625H38.075C37.9772 36.8731 37.9772 38.1269 38.075 39.375H38.0735ZM35.1635 41.625H38.3645C38.7005 43.461 39.254 45.087 39.9635 46.377C37.8507 45.4122 36.1495 43.728 35.1635 41.625ZM40.6565 33.375H47.3435C47.075 32.076 46.6895 30.939 46.2305 30.021C45.2645 28.089 44.345 27.75 44 27.75C43.655 27.75 42.7355 28.089 41.7695 30.021C41.3105 30.939 40.925 32.076 40.6565 33.375ZM49.6355 33.375H52.8365C51.8505 31.272 50.1493 29.5878 48.0365 28.623C48.746 29.913 49.2995 31.539 49.6355 33.375ZM39.965 28.623C39.2555 29.913 38.702 31.539 38.366 33.375H35.1635C36.1495 31.272 37.8522 29.5878 39.965 28.623ZM44 25.5C47.1826 25.5 50.2348 26.7643 52.4853 29.0147C54.7357 31.2652 56 34.3174 56 37.5C56 40.6826 54.7357 43.7348 52.4853 45.9853C50.2348 48.2357 47.1826 49.5 44 49.5C40.8174 49.5 37.7652 48.2357 35.5147 45.9853C33.2643 43.7348 32 40.6826 32 37.5C32 34.3174 33.2643 31.2652 35.5147 29.0147C37.7652 26.7643 40.8174 25.5 44 25.5Z" fill="#6A9CFC"/>
</svg>
