<svg xmlns="http://www.w3.org/2000/svg" width="56" height="54" viewBox="0 0 56 54" fill="none">
  <path d="M17.3806 17.7437L4.00195 26.0021V47.4179C4.00195 50.1793 6.24053 52.4179 9.00195 52.4179H17.3806V43.7493M17.3806 17.7437L33.0103 32.9938M17.3806 17.7437V26.4122M54.502 2L33.0103 21.5021L17.3806 5.97539L1.41211 15.5266M54.502 2H46.502M54.502 2V10M33.0103 52.4147L46.4997 52.4207C49.262 52.422 51.502 50.183 51.502 47.4207V43.3172V34.2115V25.1057V16L33.0103 32.9938M33.0103 52.4147H17.3887M33.0103 52.4147V49V43M33.0103 32.9938V36M17.3806 32.651V38" stroke="#6A9CFC" stroke-width="2.65385" stroke-linecap="round" stroke-linejoin="round"/>
</svg>