<svg width="88" height="88" viewBox="0 0 88 88" fill="none" xmlns="http://www.w3.org/2000/svg">
<path d="M34.3806 34.7437L21.002 43.0021V64.4179C21.002 67.1793 23.2405 69.4179 26.002 69.4179H34.3806V60.7493M34.3806 34.7437L50.0103 49.9938M34.3806 34.7437V43.4122M71.502 19L50.0103 38.5021L34.3806 22.9754L18.4121 32.5266M71.502 19H63.502M71.502 19V27M50.0103 69.4147L63.4997 69.4207C66.262 69.422 68.502 67.183 68.502 64.4207V60.3172V51.2115V42.1057V33L50.0103 49.9938M50.0103 69.4147H34.3887M50.0103 69.4147V66V60M50.0103 49.9938V53M34.3806 49.651V55" stroke="#6A9CFC" stroke-width="2.65385" stroke-linecap="round" stroke-linejoin="round"/>
</svg>
