<svg width="88" height="88" viewBox="0 0 88 88" fill="none" xmlns="http://www.w3.org/2000/svg">
<path d="M60.2947 69.998H60.2928H27.7072C26.6434 69.998 25.8248 69.6556 25.1564 68.985C24.4875 68.3139 24.1436 67.4901 24.1419 66.419V21.5797C24.1419 20.5123 24.4847 19.6902 25.1554 19.0188C25.8269 18.3466 26.6468 18.0035 27.7082 18.0018H51.0153L63.8581 30.8859V66.42C63.8581 67.4884 63.5156 68.3124 62.8456 68.986C62.1778 69.6574 61.3596 69.9996 60.2947 69.998Z" stroke="#6A9CFC" stroke-width="2.65" stroke-linejoin="round"/>
<path d="M41.7981 35.741C42.7856 35.9906 43.7651 36.3649 44.7375 36.8684C45.0075 37.0153 45.2298 37.2264 45.4109 37.5331C45.5868 37.8308 45.6759 38.1527 45.6755 38.5258V38.5273V40.1925H31.8958V38.5273C31.8958 38.1527 31.9854 37.8306 32.161 37.5338C32.3424 37.2272 32.5649 37.0154 32.8354 36.8675C33.807 36.3632 34.7854 35.9894 35.7716 35.7414C36.7615 35.4923 37.7656 35.3677 38.7865 35.367C39.8062 35.3664 40.8092 35.4909 41.7981 35.741ZM38.7856 31.6491C38.0275 31.6491 37.4022 31.3857 36.8399 30.8009C36.2761 30.2145 36.0032 29.5394 36.0032 28.7024C36.0032 27.8654 36.2761 27.1902 36.8399 26.6039C37.4022 26.0191 38.0275 25.7557 38.7856 25.7557C39.5438 25.7557 40.1691 26.0191 40.7314 26.6039C41.2952 27.1902 41.5681 27.8654 41.5681 28.7024C41.5681 29.5394 41.2952 30.2145 40.7314 30.8009C40.1691 31.3857 39.5438 31.6491 38.7856 31.6491Z" stroke="#6A9CFC" stroke-width="2.65" stroke-linejoin="round"/>
<line x1="46.6771" y1="48.5344" x2="57.5482" y2="48.5344" stroke="#6A9CFC" stroke-width="2.65" stroke-linecap="round"/>
<line x1="41.3357" y1="55.8762" x2="57.1058" y2="55.8762" stroke="#6A9CFC" stroke-width="2.65" stroke-linecap="round"/>
<line x1="35.8602" y1="62.9562" x2="57.5482" y2="62.9562" stroke="#6A9CFC" stroke-width="2.65" stroke-linecap="round"/>
</svg>
