<svg xmlns="http://www.w3.org/2000/svg" width="64" height="64" viewBox="0 0 64 64" fill="none">
  <path d="M48.2947 57.998H48.2928H15.7072C14.6434 57.998 13.8248 57.6556 13.1564 56.985C12.4875 56.3139 12.1436 55.4901 12.1419 54.419V9.57974C12.1419 8.51231 12.4847 7.69021 13.1554 7.0188C13.8269 6.34657 14.6468 6.0035 15.7082 6.00176H39.0153L51.8581 18.8859V54.42C51.8581 55.4884 51.5156 56.3124 50.8456 56.986C50.1778 57.6574 49.3596 57.9996 48.2947 57.998Z" stroke="#6A9CFC" stroke-width="2.65" stroke-linejoin="round"/>
  <path d="M29.7981 23.741C30.7856 23.9906 31.7651 24.3649 32.7375 24.8684C33.0075 25.0153 33.2298 25.2264 33.4109 25.5331C33.5868 25.8308 33.6759 26.1527 33.6755 26.5258V26.5273V28.1925H19.8958V26.5273C19.8958 26.1527 19.9854 25.8306 20.161 25.5338C20.3424 25.2272 20.5649 25.0154 20.8354 24.8675C21.807 24.3632 22.7854 23.9894 23.7716 23.7414C24.7615 23.4923 25.7656 23.3677 26.7865 23.367C27.8062 23.3664 28.8092 23.4909 29.7981 23.741ZM26.7856 19.6491C26.0275 19.6491 25.4022 19.3857 24.8399 18.8009C24.2761 18.2145 24.0032 17.5394 24.0032 16.7024C24.0032 15.8654 24.2761 15.1902 24.8399 14.6039C25.4022 14.0191 26.0275 13.7557 26.7856 13.7557C27.5438 13.7557 28.1691 14.0191 28.7314 14.6039C29.2952 15.1902 29.5681 15.8654 29.5681 16.7024C29.5681 17.5394 29.2952 18.2145 28.7314 18.8009C28.1691 19.3857 27.5438 19.6491 26.7856 19.6491Z" stroke="#6A9CFC" stroke-width="2.65" stroke-linejoin="round"/>
  <line x1="34.6771" y1="36.5344" x2="45.5482" y2="36.5344" stroke="#6A9CFC" stroke-width="2.65" stroke-linecap="round"/>
  <line x1="29.3357" y1="43.8762" x2="45.1058" y2="43.8762" stroke="#6A9CFC" stroke-width="2.65" stroke-linecap="round"/>
  <line x1="23.8602" y1="50.9562" x2="45.5482" y2="50.9562" stroke="#6A9CFC" stroke-width="2.65" stroke-linecap="round"/>
</svg>