<svg xmlns="http://www.w3.org/2000/svg" width="56" height="55" viewBox="0 0 56 55" fill="none">
  <path d="M24.5751 18.6299L50.5766 44.4145L44.6397 50.3515L18.6382 24.5668" stroke="#6A9CFC" stroke-width="2.75616" stroke-linejoin="round"/>
  <path d="M13.9578 25.9106C20.5635 25.9106 25.9184 20.5556 25.9184 13.9499C25.9184 7.34424 20.5635 1.98926 13.9578 1.98926C12.5598 1.98926 11.2179 2.22909 9.97086 2.66984L16.6746 9.52899C17.8693 10.7514 17.8581 12.7075 16.6495 13.9162L13.924 16.6416C12.7153 17.8503 10.7592 17.8615 9.5368 16.6668L2.67766 9.96305C2.2369 11.2101 1.99707 12.552 1.99707 13.9499C1.99707 20.5556 7.35205 25.9106 13.9578 25.9106Z" stroke="#6A9CFC" stroke-width="2.75616" stroke-linejoin="round"/>
  <path d="M53.9999 7.35204L49.5067 3.0293L36.6701 10.8067C34.9174 11.8686 34.6468 14.303 36.1237 15.7238L40.8085 20.2309C42.2 21.5696 44.4612 21.3358 45.5493 19.7406L53.9999 7.35204Z" stroke="#6A9CFC" stroke-width="2.75616" stroke-linejoin="round"/>
  <path d="M36.4775 17.0176L32.4163 21.0788L35.8453 24.5078L39.9065 20.4465" stroke="#6A9CFC" stroke-width="2.75616" stroke-linejoin="round"/>
  <path d="M18.5811 30.5703L26.3086 38.2979L13.0906 51.5159C11.4659 53.1406 8.8318 53.1406 7.20712 51.5159L5.36302 49.6718C3.73834 48.0471 3.73834 45.413 5.36302 43.7884L18.5811 30.5703Z" stroke="#6A9CFC" stroke-width="2.75616" stroke-linejoin="round"/>
</svg>