<svg width="88" height="88" viewBox="0 0 88 88" fill="none" xmlns="http://www.w3.org/2000/svg">
<path d="M40.5751 34.6299L66.5766 60.4145L60.6397 66.3515L34.6382 40.5668" stroke="#6A9CFC" stroke-width="2.75616" stroke-linejoin="round"/>
<path d="M29.9578 41.9106C36.5635 41.9106 41.9184 36.5556 41.9184 29.9499C41.9184 23.3442 36.5635 17.9893 29.9578 17.9893C28.5598 17.9893 27.2179 18.2291 25.9709 18.6698L32.6746 25.529C33.8693 26.7514 33.8581 28.7075 32.6495 29.9162L29.924 32.6416C28.7153 33.8503 26.7592 33.8615 25.5368 32.6668L18.6777 25.963C18.2369 27.2101 17.9971 28.552 17.9971 29.9499C17.9971 36.5556 23.3521 41.9106 29.9578 41.9106Z" stroke="#6A9CFC" stroke-width="2.75616" stroke-linejoin="round"/>
<path d="M69.9999 23.352L65.5067 19.0293L52.6701 26.8067C50.9174 27.8686 50.6468 30.303 52.1237 31.7238L56.8085 36.2309C58.2 37.5696 60.4612 37.3358 61.5493 35.7406L69.9999 23.352Z" stroke="#6A9CFC" stroke-width="2.75616" stroke-linejoin="round"/>
<path d="M52.4775 33.0176L48.4163 37.0788L51.8453 40.5078L55.9065 36.4465" stroke="#6A9CFC" stroke-width="2.75616" stroke-linejoin="round"/>
<path d="M34.5811 46.5703L42.3086 54.2979L29.0906 67.5159C27.4659 69.1406 24.8318 69.1406 23.2071 67.5159L21.363 65.6718C19.7383 64.0471 19.7383 61.413 21.363 59.7884L34.5811 46.5703Z" stroke="#6A9CFC" stroke-width="2.75616" stroke-linejoin="round"/>
</svg>
