<svg xmlns="http://www.w3.org/2000/svg" width="52" height="56" viewBox="0 0 52 56" fill="none">
  <path d="M7.4375 54.25H44.75C44.75 54.25 42.875 51.1106 42.875 48.8125C42.875 46.5144 44.75 43.375 44.75 43.375H7.4375C4.43445 43.375 2 45.8095 2 48.8125C2 51.8155 4.43445 54.25 7.4375 54.25Z" stroke="#6A9CFC" stroke-width="2.65" stroke-linejoin="round"/>
  <path d="M44.75 43.375V34.5M2 48.625V7.75C2 4.43629 4.68629 1.75 8 1.75H38.75C42.0637 1.75 44.75 4.43629 44.75 7.75V11.5" stroke="#6A9CFC" stroke-width="2.65" stroke-linejoin="round"/>
  <path d="M8.75 12.25H18.125M8.75 17.5H15.7778M13.5 49H36.875" stroke="#6A9CFC" stroke-width="2.65" stroke-linecap="round" stroke-linejoin="round"/>
  <path d="M35 37.75C38.9782 37.75 42.7936 36.1696 45.6066 33.3566C48.4196 30.5436 50 26.7282 50 22.75C50 18.7718 48.4196 14.9564 45.6066 12.1434C42.7936 9.33035 38.9782 7.75 35 7.75C31.0218 7.75 27.2064 9.33035 24.3934 12.1434C21.5804 14.9564 20 18.7718 20 22.75C20 26.7282 21.5804 30.5436 24.3934 33.3566C27.2064 36.1696 31.0218 37.75 35 37.75Z" stroke="#6A9CFC" stroke-width="2.65" stroke-linecap="round" stroke-linejoin="round"/>
  <path d="M24.5376 11.9984C31.2323 13.5774 28.0902 19.4511 27.9955 25.4195C27.9955 31.8932 33.3008 27.9774 33.0639 31.0405C33.1243 33.3296 33.5672 35.5924 34.3744 37.7353M39.3323 8.39844C39.3323 10.5774 39.3323 12.4563 38.1639 12.7879C36.4113 13.2774 37.7218 19.4669 36.585 22.4037C35.4481 25.3405 40.5797 26.3511 42.9008 23.9826C45.2218 21.6142 43.5165 19.5932 46.0586 19.5932C46.9586 19.5932 48.3323 19.7511 49.7218 19.7984" stroke="#6A9CFC" stroke-width="2.65" stroke-linecap="round" stroke-linejoin="round"/>
</svg>