<svg width="88" height="88" viewBox="0 0 88 88" fill="none" xmlns="http://www.w3.org/2000/svg">
<path d="M26.4375 70.25H63.75C63.75 70.25 61.875 67.1106 61.875 64.8125C61.875 62.5144 63.75 59.375 63.75 59.375H26.4375C23.4345 59.375 21 61.8095 21 64.8125C21 67.8155 23.4345 70.25 26.4375 70.25Z" stroke="#6A9CFC" stroke-width="2.65" stroke-linejoin="round"/>
<path d="M63.75 59.375V50.5M21 64.625V23.75C21 20.4363 23.6863 17.75 27 17.75H57.75C61.0637 17.75 63.75 20.4363 63.75 23.75V27.5" stroke="#6A9CFC" stroke-width="2.65" stroke-linejoin="round"/>
<path d="M27.75 28.25H37.125M27.75 33.5H34.7778M32.5 65H55.875" stroke="#6A9CFC" stroke-width="2.65" stroke-linecap="round" stroke-linejoin="round"/>
<path d="M54 53.75C57.9782 53.75 61.7936 52.1696 64.6066 49.3566C67.4196 46.5436 69 42.7282 69 38.75C69 34.7718 67.4196 30.9564 64.6066 28.1434C61.7936 25.3304 57.9782 23.75 54 23.75C50.0218 23.75 46.2064 25.3304 43.3934 28.1434C40.5804 30.9564 39 34.7718 39 38.75C39 42.7282 40.5804 46.5436 43.3934 49.3566C46.2064 52.1696 50.0218 53.75 54 53.75Z" stroke="#6A9CFC" stroke-width="2.65" stroke-linecap="round" stroke-linejoin="round"/>
<path d="M43.5376 27.9984C50.2323 29.5774 47.0902 35.4511 46.9955 41.4195C46.9955 47.8932 52.3008 43.9774 52.0639 47.0405C52.1243 49.3296 52.5672 51.5924 53.3744 53.7353M58.3323 24.3984C58.3323 26.5774 58.3323 28.4563 57.1639 28.7879C55.4113 29.2774 56.7218 35.4669 55.585 38.4037C54.4481 41.3405 59.5797 42.3511 61.9008 39.9826C64.2218 37.6142 62.5165 35.5932 65.0586 35.5932C65.9586 35.5932 67.3323 35.7511 68.7218 35.7984" stroke="#6A9CFC" stroke-width="2.65" stroke-linecap="round" stroke-linejoin="round"/>
</svg>
