<svg width="88" height="88" viewBox="0 0 88 88" fill="none" xmlns="http://www.w3.org/2000/svg">
<path d="M43.2712 29.9279V62.4873M43.2712 29.9279C43.2712 29.9279 34.8083 26.7003 29.3856 26.1393C24.9132 25.6767 18.3726 27.2803 16.2177 27.8566C15.7887 27.9713 15.5 28.3602 15.5 28.8043V59.2798C15.5 59.9468 16.1384 60.4333 16.7845 60.2675C19.3583 59.607 25.2543 58.2713 29.3856 58.6987C34.8083 59.2596 43.2712 62.4873 43.2712 62.4873M43.2712 29.9279C43.2712 29.9279 52.0259 26.7003 57.6356 26.1393C62.2738 25.6755 69.0622 27.2884 71.2742 27.8609C71.7074 27.973 72 28.364 72 28.8114V59.2922C72 59.9555 71.3689 60.4411 70.7252 60.2809C68.0919 59.6253 61.9385 58.2684 57.6356 58.6987C52.0259 59.2596 43.2712 62.4873 43.2712 62.4873" stroke="#6A9CFC" stroke-width="2.65" stroke-linejoin="round"/>
<path d="M66.4998 36.7519C63.6875 36.237 60.3042 35.8156 57.6337 36.0827C55.0278 36.3433 51.7431 37.1794 48.9727 38" stroke="#6A9CFC" stroke-width="2.65" stroke-linecap="round" stroke-linejoin="round"/>
<path d="M66.4998 43.7519C63.6875 43.237 60.3042 42.8156 57.6337 43.0827C55.0278 43.3433 51.7431 44.1794 48.9727 45" stroke="#6A9CFC" stroke-width="2.65" stroke-linecap="round" stroke-linejoin="round"/>
<path d="M66.4998 50.7519C63.6875 50.237 60.3042 49.8156 57.6337 50.0827C55.0278 50.3433 51.7431 51.1794 48.9727 52" stroke="#6A9CFC" stroke-width="2.65" stroke-linecap="round" stroke-linejoin="round"/>
<path d="M21.0002 36.7519C23.8125 36.237 27.1958 35.8156 29.8663 36.0827C32.4722 36.3433 35.7569 37.1794 38.5273 38" stroke="#6A9CFC" stroke-width="2.65" stroke-linecap="round" stroke-linejoin="round"/>
<path d="M21.0002 43.7519C23.8125 43.237 27.1958 42.8156 29.8663 43.0827C32.4722 43.3433 35.7569 44.1794 38.5273 45" stroke="#6A9CFC" stroke-width="2.65" stroke-linecap="round" stroke-linejoin="round"/>
<path d="M21.0002 50.7519C23.8125 50.237 27.1958 49.8156 29.8663 50.0827C32.4722 50.3433 35.7569 51.1794 38.5273 52" stroke="#6A9CFC" stroke-width="2.65" stroke-linecap="round" stroke-linejoin="round"/>
</svg>
