<svg xmlns="http://www.w3.org/2000/svg" width="68" height="44" viewBox="0 0 68 44" fill="none">
  <path d="M33.2712 7.92793V40.4873M33.2712 7.92793C33.2712 7.92793 24.8083 4.7003 19.3856 4.13934C14.9132 3.67667 8.3726 5.28034 6.2177 5.85657C5.78866 5.9713 5.5 6.36023 5.5 6.80434V37.2798C5.5 37.9468 6.13837 38.4333 6.78448 38.2675C9.35834 37.607 15.2543 36.2713 19.3856 36.6987C24.8083 37.2596 33.2712 40.4873 33.2712 40.4873M33.2712 7.92793C33.2712 7.92793 42.0259 4.7003 47.6356 4.13934C52.2738 3.67551 59.0622 5.28837 61.2742 5.86087C61.7074 5.97299 62 6.36395 62 6.8114V37.2922C62 37.9555 61.3689 38.4411 60.7252 38.2809C58.0919 37.6253 51.9385 36.2684 47.6356 36.6987C42.0259 37.2596 33.2712 40.4873 33.2712 40.4873" stroke="#6A9CFC" stroke-width="2.65" stroke-linejoin="round"/>
  <path d="M56.4998 14.7519C53.6875 14.237 50.3042 13.8156 47.6337 14.0827C45.0278 14.3433 41.7431 15.1794 38.9727 16" stroke="#6A9CFC" stroke-width="2.65" stroke-linecap="round" stroke-linejoin="round"/>
  <path d="M56.4998 21.7519C53.6875 21.237 50.3042 20.8156 47.6337 21.0827C45.0278 21.3433 41.7431 22.1794 38.9727 23" stroke="#6A9CFC" stroke-width="2.65" stroke-linecap="round" stroke-linejoin="round"/>
  <path d="M56.4998 28.7519C53.6875 28.237 50.3042 27.8156 47.6337 28.0827C45.0278 28.3433 41.7431 29.1794 38.9727 30" stroke="#6A9CFC" stroke-width="2.65" stroke-linecap="round" stroke-linejoin="round"/>
  <path d="M11.0002 14.7519C13.8125 14.237 17.1958 13.8156 19.8663 14.0827C22.4722 14.3433 25.7569 15.1794 28.5273 16" stroke="#6A9CFC" stroke-width="2.65" stroke-linecap="round" stroke-linejoin="round"/>
  <path d="M11.0002 21.7519C13.8125 21.237 17.1958 20.8156 19.8663 21.0827C22.4722 21.3433 25.7569 22.1794 28.5273 23" stroke="#6A9CFC" stroke-width="2.65" stroke-linecap="round" stroke-linejoin="round"/>
  <path d="M11.0002 28.7519C13.8125 28.237 17.1958 27.8156 19.8663 28.0827C22.4722 28.3433 25.7569 29.1794 28.5273 30" stroke="#6A9CFC" stroke-width="2.65" stroke-linecap="round" stroke-linejoin="round"/>
</svg>