<svg xmlns="http://www.w3.org/2000/svg" width="56" height="50" viewBox="0 0 56 50" fill="none">
  <path d="M54.0009 15.9071C54.0009 15.5926 53.9133 15.2842 53.748 15.0165C53.5827 14.7489 53.3462 14.5325 53.0649 14.3917L28.6061 2.16088C28.371 2.04352 28.1118 1.98242 27.8491 1.98242C27.5863 1.98242 27.3271 2.04352 27.0921 2.16088L2.63325 14.3889C2.35196 14.5297 2.11543 14.7461 1.95012 15.0137C1.78482 15.2814 1.69727 15.5897 1.69727 15.9043C1.69727 16.2189 1.78482 16.5273 1.95012 16.7949C2.11543 17.0625 2.35196 17.2789 2.63325 17.4197L27.0921 29.6506C27.3271 29.7679 27.5863 29.829 27.8491 29.829C28.1118 29.829 28.371 29.7679 28.6061 29.6506L53.0649 17.4226C53.3462 17.2817 53.5827 17.0654 53.748 16.7977C53.9133 16.5301 54.0009 16.2217 54.0009 15.9071ZM54.0009 15.9071V29.0187M54.0009 34.5017V35.05" stroke="#6A9CFC" stroke-width="2.65" stroke-linecap="round" stroke-linejoin="round"/>
  <path d="M8.07129 20.1416V35.4287C8.07108 36.4975 8.37406 37.5444 8.94505 38.4479C9.51604 39.3514 10.3316 40.0744 11.2971 40.5329L25.4204 47.2386C26.1777 47.5983 27.0056 47.7849 27.844 47.7849C28.6824 47.7849 29.5102 47.5983 30.2675 47.2386L44.3909 40.5329C45.3563 40.0744 46.1719 39.3514 46.7429 38.4479C47.3139 37.5444 47.6169 36.4975 47.6166 35.4287V20.1416" stroke="#6A9CFC" stroke-width="2.65" stroke-linecap="round" stroke-linejoin="round"/>
</svg>