<svg width="88" height="88" viewBox="0 0 88 88" fill="none" xmlns="http://www.w3.org/2000/svg">
<path d="M70.0009 34.9071C70.0009 34.5926 69.9133 34.2842 69.748 34.0165C69.5827 33.7489 69.3462 33.5325 69.0649 33.3917L44.6061 21.1609C44.371 21.0435 44.1118 20.9824 43.8491 20.9824C43.5863 20.9824 43.3271 21.0435 43.0921 21.1609L18.6332 33.3889C18.352 33.5297 18.1154 33.7461 17.9501 34.0137C17.7848 34.2814 17.6973 34.5897 17.6973 34.9043C17.6973 35.2189 17.7848 35.5273 17.9501 35.7949C18.1154 36.0625 18.352 36.2789 18.6332 36.4197L43.0921 48.6506C43.3271 48.7679 43.5863 48.829 43.8491 48.829C44.1118 48.829 44.371 48.7679 44.6061 48.6506L69.0649 36.4226C69.3462 36.2817 69.5827 36.0654 69.748 35.7977C69.9133 35.5301 70.0009 35.2217 70.0009 34.9071ZM70.0009 34.9071V48.0187M70.0009 53.5017V54.05" stroke="#6A9CFC" stroke-width="2.65" stroke-linecap="round" stroke-linejoin="round"/>
<path d="M24.0713 39.1416V54.4287C24.0711 55.4975 24.3741 56.5444 24.9451 57.4479C25.516 58.3514 26.3316 59.0744 27.2971 59.5329L41.4204 66.2386C42.1777 66.5983 43.0056 66.7849 43.844 66.7849C44.6824 66.7849 45.5102 66.5983 46.2675 66.2386L60.3909 59.5329C61.3563 59.0744 62.1719 58.3514 62.7429 57.4479C63.3139 56.5444 63.6169 55.4975 63.6166 54.4287V39.1416" stroke="#6A9CFC" stroke-width="2.65" stroke-linecap="round" stroke-linejoin="round"/>
</svg>
