<svg xmlns="http://www.w3.org/2000/svg" width="66" height="66" viewBox="0 0 66 66" fill="none">
  <path d="M28.5916 13V19.5341H31V21.5H28.5916V30H26.2019V13H28.5916ZM24.0548 14.7412C24.0362 19.8337 22.0572 24.2522 16.3442 27.0606L15 25.2258C19.0233 23.2037 21.1797 20.489 21.6278 16.6883H15.9708V14.7412H24.0548Z" fill="#6A9CFC"/>
  <path d="M41.5 28.1483C42.4672 25.9418 43 23.5287 43 21C43 10.5048 33.8219 2 22.5 2C11.1781 2 2 10.5048 2 21C2 24.5513 3.0624 27.8701 4.8972 30.7124C4.93153 30.7655 4.93908 30.8318 4.91716 30.8911L2.14151 38.4114C2.0839 38.5675 2.23097 38.7216 2.38958 38.6713L10.1252 36.2189C10.1844 36.2001 10.2488 36.2099 10.2999 36.2451C13.7121 38.5928 17.9237 40 22.5 40C23.5457 40 24.5731 39.9274 25.5767 39.7875" stroke="#6A9CFC" stroke-width="2.65385" stroke-linecap="round" stroke-linejoin="round"/>
  <path d="M44.5 28C55.2696 28 64 36.0571 64 46C64 49.3624 62.9906 52.5049 61.2472 55.1965C61.2126 55.2498 61.205 55.3163 61.2271 55.3758L63.858 62.475C63.9158 62.631 63.7689 62.7853 63.6102 62.7352L56.2754 60.4192C56.2164 60.4006 56.1522 60.4103 56.1012 60.4453C52.8561 62.6679 48.8514 64 44.5 64C33.7304 64 25 55.9429 25 46C25 36.0571 33.7304 28 44.5 28Z" stroke="#6A9CFC" stroke-width="2.65385" stroke-linecap="round" stroke-linejoin="round"/>
  <path d="M40.1073 53H37L42.7004 37H46.2772L52 53H48.8927L47.5514 49.0442H41.4486L40.1073 53ZM42.231 46.7238H46.769L44.5559 40.2707H44.4218L42.231 46.7238Z" fill="#6A9CFC"/>
</svg>