<svg width="88" height="88" viewBox="0 0 88 88" fill="none" xmlns="http://www.w3.org/2000/svg">
<path d="M39.5916 24V30.5341H42V32.5H39.5916V41H37.2019V24H39.5916ZM35.0548 25.7412C35.0362 30.8337 33.0572 35.2522 27.3442 38.0606L26 36.2258C30.0233 34.2037 32.1797 31.489 32.6278 27.6883H26.9708V25.7412H35.0548Z" fill="#6A9CFC"/>
<path d="M52.5 39.1483C53.4672 36.9418 54 34.5287 54 32C54 21.5048 44.8219 13 33.5 13C22.1781 13 13 21.5048 13 32C13 35.5513 14.0624 38.8701 15.8972 41.7124C15.9315 41.7655 15.9391 41.8318 15.9172 41.8911L13.1415 49.4114C13.0839 49.5675 13.231 49.7216 13.3896 49.6713L21.1252 47.2189C21.1844 47.2001 21.2488 47.2099 21.2999 47.2451C24.7121 49.5928 28.9237 51 33.5 51C34.5457 51 35.5731 50.9274 36.5767 50.7875" stroke="#6A9CFC" stroke-width="2.65385" stroke-linecap="round" stroke-linejoin="round"/>
<path d="M55.5 39C66.2696 39 75 47.0571 75 57C75 60.3624 73.9906 63.5049 72.2472 66.1965C72.2126 66.2498 72.205 66.3163 72.2271 66.3758L74.858 73.475C74.9158 73.631 74.7689 73.7853 74.6102 73.7352L67.2754 71.4192C67.2164 71.4006 67.1522 71.4103 67.1012 71.4453C63.8561 73.6679 59.8514 75 55.5 75C44.7304 75 36 66.9429 36 57C36 47.0571 44.7304 39 55.5 39Z" stroke="#6A9CFC" stroke-width="2.65385" stroke-linecap="round" stroke-linejoin="round"/>
<path d="M51.1073 64H48L53.7004 48H57.2772L63 64H59.8927L58.5514 60.0442H52.4486L51.1073 64ZM53.231 57.7238H57.769L55.5559 51.2707H55.4218L53.231 57.7238Z" fill="#6A9CFC"/>
</svg>
