<svg width="88" height="88" viewBox="0 0 88 88" fill="none" xmlns="http://www.w3.org/2000/svg">
<rect x="21.28" y="21.28" width="45.44" height="45.44" rx="22.72" stroke="#6A9CFC" stroke-width="2.56"/>
<path d="M31.4579 45.3431L31.8114 44.9896L31.4579 45.3431C31.8142 45.6994 32.2975 45.8996 32.8014 45.8996C33.3053 45.8996 33.7885 45.6994 34.1449 45.3431C34.5012 44.9868 34.7014 44.5035 34.7014 43.9996C34.7014 43.4957 34.5012 43.0124 34.1449 42.6561L33.7913 43.0097L34.1449 42.6561C33.7886 42.2998 33.3053 42.0996 32.8014 42.0996C32.2975 42.0996 31.8142 42.2998 31.4579 42.6561C31.1015 43.0124 30.9014 43.4957 30.9014 43.9996C30.9014 44.5035 31.1015 44.9868 31.4579 45.3431ZM42.6579 42.6561L43.0114 43.0097L42.6579 42.6561C42.3015 43.0124 42.1014 43.4957 42.1014 43.9996C42.1014 44.5035 42.3015 44.9868 42.6579 45.3431C43.0142 45.6994 43.4975 45.8996 44.0014 45.8996C44.5053 45.8996 44.9886 45.6994 45.3449 45.3431C45.7012 44.9868 45.9014 44.5035 45.9014 43.9996C45.9014 43.4957 45.7012 43.0124 45.3449 42.6561C44.9886 42.2998 44.5053 42.0996 44.0014 42.0996C43.4975 42.0996 43.0142 42.2998 42.6579 42.6561ZM55.2014 45.8996C55.7053 45.8996 56.1886 45.6994 56.5449 45.3431C56.9012 44.9868 57.1014 44.5035 57.1014 43.9996C57.1014 43.4957 56.9012 43.0124 56.5449 42.6561C56.1886 42.2998 55.7053 42.0996 55.2014 42.0996C54.6975 42.0996 54.2142 42.2998 53.8579 42.6561C53.5015 43.0124 53.3014 43.4957 53.3014 43.9996C53.3014 44.5035 53.5015 44.9868 53.8579 45.3431C54.2142 45.6994 54.6975 45.8996 55.2014 45.8996Z" fill="#6A9CFC" stroke="#6A9CFC"/>
</svg>
