<svg xmlns="http://www.w3.org/2000/svg" width="64" height="64" viewBox="0 0 64 64" fill="none">
  <path d="M16.3 43.4989C16.2988 44.9887 16.5096 46.4677 16.9235 47.8922C16.4517 47.8466 15.9842 47.7551 15.5276 47.6182C14.5298 47.3189 13.6076 46.8094 12.8229 46.1242C12.0383 45.4389 11.4095 44.5936 10.9786 43.6451C10.5477 42.6966 10.3249 41.6669 10.325 40.6251V40.625V29.8438C10.325 28.5918 11.3418 27.575 12.5938 27.575H16.6362M16.3 43.4989L17.625 43.5H16.3V43.4989ZM16.3 43.4989V29.8438C16.3 29.0549 16.4177 28.2932 16.6362 27.575M16.6362 27.575H17.7796C17.4373 27.575 17.1902 27.3717 17.0789 27.176C16.973 26.99 16.9407 26.7352 17.057 26.4915C16.891 26.8393 16.75 27.2013 16.6362 27.575ZM37.8625 16.1875C37.8625 17.7423 37.2448 19.2335 36.1454 20.3329C35.046 21.4323 33.5548 22.05 32 22.05C30.4452 22.05 28.954 21.4323 27.8546 20.3329C26.7552 19.2335 26.1375 17.7423 26.1375 16.1875C26.1375 14.6327 26.7552 13.1415 27.8546 12.0421C28.954 10.9427 30.4452 10.325 32 10.325C33.5548 10.325 35.046 10.9427 36.1454 12.0421C37.2448 13.1415 37.8625 14.6327 37.8625 16.1875ZM52.2375 17.625C52.2375 18.7986 51.7713 19.9241 50.9414 20.7539C50.1116 21.5838 48.9861 22.05 47.8125 22.05C46.6389 22.05 45.5134 21.5838 44.6836 20.7539C43.8537 19.9241 43.3875 18.7986 43.3875 17.625C43.3875 16.4514 43.8537 15.3259 44.6836 14.4961C45.5134 13.6662 46.6389 13.2 47.8125 13.2C48.9861 13.2 50.1116 13.6662 50.9414 14.4961C51.7713 15.3259 52.2375 16.4514 52.2375 17.625ZM19.3164 20.7539C18.4866 21.5838 17.3611 22.05 16.1875 22.05C15.0139 22.05 13.8884 21.5838 13.0586 20.7539C12.2287 19.9241 11.7625 18.7986 11.7625 17.625C11.7625 16.4514 12.2287 15.3259 13.0586 14.4961C13.8884 13.6662 15.0139 13.2 16.1875 13.2C17.3611 13.2 18.4866 13.6662 19.3164 14.4961C20.1463 15.3259 20.6125 16.4514 20.6125 17.625C20.6125 18.7986 20.1463 19.9241 19.3164 20.7539ZM21.825 29.8438C21.825 28.5918 22.8418 27.575 24.0938 27.575H39.9062C41.1582 27.575 42.175 28.5918 42.175 29.8438V43.5C42.175 46.1986 41.103 48.7866 39.1948 50.6948C37.2866 52.603 34.6986 53.675 32 53.675C29.3014 53.675 26.7134 52.603 24.8052 50.6948C22.897 48.7866 21.825 46.1986 21.825 43.5V29.8438ZM51.5369 45.7869C50.3345 46.9892 48.7559 47.7289 47.0778 47.8911C47.4831 46.4959 47.7 45.0212 47.7 43.5V29.8438C47.7 29.0556 47.5832 28.2938 47.3648 27.575H51.4062C52.6582 27.575 53.675 28.5918 53.675 29.8438V40.625C53.675 42.5611 52.9059 44.4179 51.5369 45.7869Z" stroke="#6A9CFC" stroke-width="2.65" stroke-linejoin="round"/>
</svg>