<svg width="88" height="88" viewBox="0 0 88 88" fill="none" xmlns="http://www.w3.org/2000/svg">
<path d="M28.3 55.4989C28.2988 56.9887 28.5096 58.4677 28.9235 59.8922C28.4517 59.8466 27.9842 59.7551 27.5276 59.6182C26.5298 59.3189 25.6076 58.8094 24.8229 58.1242C24.0383 57.4389 23.4095 56.5936 22.9786 55.6451C22.5477 54.6966 22.3249 53.6669 22.325 52.6251V52.625V41.8438C22.325 40.5918 23.3418 39.575 24.5938 39.575H28.6362M28.3 55.4989L29.625 55.5H28.3V55.4989ZM28.3 55.4989V41.8438C28.3 41.0549 28.4177 40.2932 28.6362 39.575M28.6362 39.575H29.7796C29.4373 39.575 29.1902 39.3717 29.0789 39.176C28.973 38.99 28.9407 38.7352 29.057 38.4915C28.891 38.8393 28.75 39.2013 28.6362 39.575ZM49.8625 28.1875C49.8625 29.7423 49.2448 31.2335 48.1454 32.3329C47.046 33.4323 45.5548 34.05 44 34.05C42.4452 34.05 40.954 33.4323 39.8546 32.3329C38.7552 31.2335 38.1375 29.7423 38.1375 28.1875C38.1375 26.6327 38.7552 25.1415 39.8546 24.0421C40.954 22.9427 42.4452 22.325 44 22.325C45.5548 22.325 47.046 22.9427 48.1454 24.0421C49.2448 25.1415 49.8625 26.6327 49.8625 28.1875ZM64.2375 29.625C64.2375 30.7986 63.7713 31.9241 62.9414 32.7539C62.1116 33.5838 60.9861 34.05 59.8125 34.05C58.6389 34.05 57.5134 33.5838 56.6836 32.7539C55.8537 31.9241 55.3875 30.7986 55.3875 29.625C55.3875 28.4514 55.8537 27.3259 56.6836 26.4961C57.5134 25.6662 58.6389 25.2 59.8125 25.2C60.9861 25.2 62.1116 25.6662 62.9414 26.4961C63.7713 27.3259 64.2375 28.4514 64.2375 29.625ZM31.3164 32.7539C30.4866 33.5838 29.3611 34.05 28.1875 34.05C27.0139 34.05 25.8884 33.5838 25.0586 32.7539C24.2287 31.9241 23.7625 30.7986 23.7625 29.625C23.7625 28.4514 24.2287 27.3259 25.0586 26.4961C25.8884 25.6662 27.0139 25.2 28.1875 25.2C29.3611 25.2 30.4866 25.6662 31.3164 26.4961C32.1463 27.3259 32.6125 28.4514 32.6125 29.625C32.6125 30.7986 32.1463 31.9241 31.3164 32.7539ZM33.825 41.8438C33.825 40.5918 34.8418 39.575 36.0938 39.575H51.9062C53.1582 39.575 54.175 40.5918 54.175 41.8438V55.5C54.175 58.1986 53.103 60.7866 51.1948 62.6948C49.2866 64.603 46.6986 65.675 44 65.675C41.3014 65.675 38.7134 64.603 36.8052 62.6948C34.897 60.7866 33.825 58.1986 33.825 55.5V41.8438ZM63.5369 57.7869C62.3345 58.9892 60.7559 59.7289 59.0778 59.8911C59.4831 58.4959 59.7 57.0212 59.7 55.5V41.8438C59.7 41.0556 59.5832 40.2938 59.3648 39.575H63.4062C64.6582 39.575 65.675 40.5918 65.675 41.8438V52.625C65.675 54.5611 64.9059 56.4179 63.5369 57.7869Z" stroke="#6A9CFC" stroke-width="2.65" stroke-linejoin="round"/>
</svg>
