<svg xmlns="http://www.w3.org/2000/svg" width="81" height="81" viewBox="0 0 81 81" fill="none">
  <circle cx="15.7024" cy="34.2502" r="2.73363" fill="#6A9CFC"/>
  <path d="M59.3331 28.4055C62.6754 5.17625 42.6455 22.0981 33.8376 32.9566C25.0297 43.8152 12.4093 72.3899 34.2538 61.2454" stroke="#6A9CFC" stroke-width="2.44274" stroke-linecap="round"/>
  <path d="M58.9275 47.8026C72.5389 47.0157 71.4125 40.9231 64.9063 36.6417C59.6526 33.1845 51.4082 32.0292 42.5174 31.2999C33.6265 30.5706 23.6733 31.3682 17.4097 33.3962C9.37095 35.9988 8.01187 44.1597 20.315 46.893" stroke="#6A9CFC" stroke-width="2.44274" stroke-linecap="round"/>
  <path d="M38.4232 20.4086C16.0419 3.32338 19.3423 25.8089 28.8832 43.4404C33.351 51.6969 34.837 54.5805 41.1591 60.9027C47.4811 67.2248 56.5358 70.1287 54.9999 57.1427C54.9999 57.1427 54.9999 52.8727 49.5309 43.4404" stroke="#6A9CFC" stroke-width="2.44274" stroke-linecap="round"/>
  <circle cx="40.6453" cy="41.4258" r="4.44214" fill="#6A9CFC" stroke="#6A9CFC" stroke-width="2.44274" stroke-linecap="round"/>
  <circle cx="55.3391" cy="56.8025" r="2.73363" fill="#6A9CFC"/>
  <circle cx="59.4407" cy="21.2651" r="2.73363" fill="#6A9CFC"/>
</svg>