<svg xmlns="http://www.w3.org/2000/svg" width="40" height="40" viewBox="0 0 40 40" fill="none">
    <path fillRule="evenodd" clipRule="evenodd" d="M13.621 28.5801C13.3007 28.9233 12.7628 28.9418 12.4196 28.6215C12.0764 28.3012 12.0579 27.7633 12.3782 27.4201L18.8369 20.5001L12.3782 13.5801C12.0579 13.2369 12.0764 12.699 12.4196 12.3787C12.7628 12.0584 13.3007 12.0769 13.621 12.4201L19.9996 19.2543L26.3782 12.4201C26.6985 12.0769 27.2364 12.0584 27.5796 12.3787C27.9228 12.699 27.9413 13.2369 27.621 13.5801L21.1623 20.5001L27.621 27.4201C27.9413 27.7633 27.9228 28.3012 27.5796 28.6215C27.2364 28.9418 26.6985 28.9233 26.3782 28.5801L19.9996 21.7458L13.621 28.5801Z" fill="#B1B1B1"/>
</svg>