<svg width="32" height="32" viewBox="0 0 32 32" fill="none" xmlns="http://www.w3.org/2000/svg">
<g id="&#236;&#166;&#144;&#234;&#178;&#168;&#236;&#176;&#190;&#234;&#184;&#176;">
<path id="Vector" d="M16.2327 20.6604C16.087 20.5839 15.913 20.5839 15.7674 20.6604L11.7257 22.7851L12.4977 18.2843C12.5255 18.1221 12.4717 17.9566 12.3538 17.8417L9.08277 14.6545L13.6016 13.9978C13.7644 13.9742 13.9052 13.8719 13.978 13.7244L16 9.62866L18.0213 13.7243C18.0941 13.8719 18.2349 13.9742 18.3977 13.9978L22.9167 14.6545L19.6463 17.8417C19.5284 17.9566 19.4746 18.1222 19.5025 18.2844L20.2751 22.7851L16.2327 20.6604ZM11.6572 23.1845L11.6573 23.1842L11.6572 23.1845ZM8.68165 14.7128L8.68208 14.7127C8.68194 14.7127 8.68179 14.7128 8.68165 14.7128L8.65289 14.5149L8.68165 14.7128ZM23.3177 14.7128C23.3176 14.7128 23.3175 14.7128 23.3174 14.7127L23.3177 14.7128ZM20.3436 23.1845C20.3436 23.1844 20.3436 23.1843 20.3436 23.1842L20.3436 23.1845Z" stroke="current" stroke-linejoin="round"/>
</g>
</svg>
