<svg width="32" height="32" viewBox="0 0 32 32" fill="none" xmlns="http://www.w3.org/2000/svg">
<g id="&#236;&#188;&#128;&#235;&#176;&#165;">
<path id="Vector" fill-rule="evenodd" clip-rule="evenodd" d="M14.5842 9.41056C14.5842 9.03633 14.7329 8.67742 14.9975 8.4128C15.2621 8.14818 15.621 7.99951 15.9953 7.99951H16.0047C16.3789 7.99951 16.7378 8.14818 17.0025 8.4128C17.2671 8.67742 17.4157 9.03633 17.4157 9.41056V9.41997C17.4157 9.7942 17.2671 10.1531 17.0025 10.4177C16.7378 10.6824 16.3789 10.831 16.0047 10.831H15.9953C15.621 10.831 15.2621 10.6824 14.9975 10.4177C14.7329 10.1531 14.5842 9.7942 14.5842 9.41997V9.41056ZM14.5842 15.9955C14.5842 15.6212 14.7329 15.2623 14.9975 14.9977C15.2621 14.7331 15.621 14.5844 15.9953 14.5844H16.0047C16.3789 14.5844 16.7378 14.7331 17.0025 14.9977C17.2671 15.2623 17.4157 15.6212 17.4157 15.9955V16.0049C17.4157 16.3791 17.2671 16.738 17.0025 17.0026C16.7378 17.2673 16.3789 17.4159 16.0047 17.4159H15.9953C15.621 17.4159 15.2621 17.2673 14.9975 17.0026C14.7329 16.738 14.5842 16.3791 14.5842 16.0049V15.9955ZM15.9953 21.1693C15.621 21.1693 15.2621 21.318 14.9975 21.5826C14.7329 21.8472 14.5842 22.2061 14.5842 22.5804V22.5898C14.5842 22.964 14.7329 23.3229 14.9975 23.5875C15.2621 23.8522 15.621 24.0008 15.9953 24.0008H16.0047C16.3789 24.0008 16.7378 23.8522 17.0025 23.5875C17.2671 23.3229 17.4157 22.964 17.4157 22.5898V22.5804C17.4157 22.2061 17.2671 21.8472 17.0025 21.5826C16.7378 21.318 16.3789 21.1693 16.0047 21.1693H15.9953Z" fill="#B1B1B1"/>
</g>
</svg>
