<svg xmlns="http://www.w3.org/2000/svg" width="22" height="21" viewBox="0 0 22 21" fill="none">
  <path d="M6.53033 3.30292C6.23744 3.01003 5.76256 3.01003 5.46967 3.30292L0.696699 8.07589C0.403806 8.36879 0.403806 8.84366 0.696699 9.13655C0.989593 9.42945 1.46447 9.42945 1.75736 9.13655L6 4.89391L10.2426 9.13655C10.5355 9.42945 11.0104 9.42945 11.3033 9.13655C11.5962 8.84366 11.5962 8.36879 11.3033 8.07589L6.53033 3.30292ZM5.25 17.1666C5.25 17.5808 5.58579 17.9166 6 17.9166C6.41421 17.9166 6.75 17.5808 6.75 17.1666L5.25 17.1666ZM5.25 3.83325L5.25 17.1666L6.75 17.1666L6.75 3.83325L5.25 3.83325Z" fill="#1A1A1A"/>
  <path d="M16.75 3.83325C16.75 3.41904 16.4142 3.08325 16 3.08325C15.5858 3.08325 15.25 3.41904 15.25 3.83325L16.75 3.83325ZM15.4697 17.6969C15.7626 17.9898 16.2374 17.9898 16.5303 17.6969L21.3033 12.9239C21.5962 12.6311 21.5962 12.1562 21.3033 11.8633C21.0104 11.5704 20.5355 11.5704 20.2426 11.8633L16 16.1059L11.7574 11.8633C11.4645 11.5704 10.9896 11.5704 10.6967 11.8633C10.4038 12.1562 10.4038 12.6311 10.6967 12.9239L15.4697 17.6969ZM15.25 3.83325L15.25 17.1666L16.75 17.1666L16.75 3.83325L15.25 3.83325Z" fill="#1A1A1A"/>
</svg>