<svg xmlns="http://www.w3.org/2000/svg" width="24" height="25" viewBox="0 0 24 25" fill="none">
  <path d="M23.095 19.8723C22.3718 19.2276 21.7386 18.4884 21.2125 17.6748C20.6376 16.5519 20.2933 15.3253 20.2 14.0673V10.3623C20.205 8.38651 19.4883 6.47691 18.1846 4.99228C16.8808 3.50766 15.0799 2.5502 13.12 2.2998V1.3323C13.12 1.06676 13.0145 0.812085 12.8267 0.624314C12.639 0.436543 12.3843 0.331055 12.1188 0.331055C11.8532 0.331055 11.5985 0.436543 11.4108 0.624314C11.223 0.812085 11.1175 1.06676 11.1175 1.3323V2.3148C9.17519 2.58325 7.39598 3.5465 6.1094 5.02613C4.82281 6.50577 4.11605 8.40154 4.12 10.3623V14.0673C4.02667 15.3253 3.6824 16.5519 3.1075 17.6748C2.59066 18.4866 1.96765 19.2256 1.255 19.8723C1.175 19.9426 1.11088 20.0291 1.06691 20.1261C1.02295 20.2231 1.00013 20.3283 1 20.4348V21.4548C1 21.6537 1.07902 21.8445 1.21967 21.9851C1.36032 22.1258 1.55109 22.2048 1.75 22.2048H22.6C22.7989 22.2048 22.9897 22.1258 23.1303 21.9851C23.271 21.8445 23.35 21.6537 23.35 21.4548V20.4348C23.3499 20.3283 23.3271 20.2231 23.2831 20.1261C23.2391 20.0291 23.175 19.9426 23.095 19.8723ZM2.56 20.7048C3.25765 20.0306 3.87202 19.2752 4.39 18.4548C5.11434 17.0988 5.53651 15.602 5.6275 14.0673V10.3623C5.59776 9.48333 5.74519 8.60736 6.06103 7.78656C6.37687 6.96575 6.85466 6.21689 7.46594 5.58458C8.07721 4.95227 8.80948 4.44943 9.61914 4.10601C10.4288 3.76259 11.2993 3.58561 12.1788 3.58561C13.0582 3.58561 13.9287 3.76259 14.7384 4.10601C15.548 4.44943 16.2803 4.95227 16.8916 5.58458C17.5028 6.21689 17.9806 6.96575 18.2965 7.78656C18.6123 8.60736 18.7597 9.48333 18.73 10.3623V14.0673C18.821 15.602 19.2432 17.0988 19.9675 18.4548C20.4855 19.2752 21.0999 20.0306 21.7975 20.7048H2.56Z" fill="#4D4D4D" stroke="#4D4D4D" stroke-width="0.5"/>
  <path d="M12.2131 24.71C12.6856 24.6991 13.139 24.5215 13.4931 24.2086C13.8472 23.8956 14.0792 23.4675 14.1481 23H10.2031C10.274 23.4802 10.5169 23.9184 10.8866 24.2329C11.2563 24.5475 11.7277 24.717 12.2131 24.71Z" fill="#4D4D4D" stroke="#4D4D4D" stroke-width="0.5"/>
</svg>