<svg width="154" height="64" viewBox="0 0 154 64" fill="none" xmlns="http://www.w3.org/2000/svg">
<path d="M34.6666 18.6667H23.9999C23.2927 18.6667 22.6144 18.9477 22.1143 19.4478C21.6142 19.9479 21.3333 20.6262 21.3333 21.3334V42.6667C21.3333 43.374 21.6142 44.0523 22.1143 44.5524C22.6144 45.0525 23.2927 45.3334 23.9999 45.3334H39.9999C40.7072 45.3334 41.3854 45.0525 41.8855 44.5524C42.3856 44.0523 42.6666 43.374 42.6666 42.6667V26.6667L34.6666 18.6667Z" stroke="#B1B1B1" stroke-width="2.2" stroke-linecap="round" stroke-linejoin="round"/>
<path d="M34.6665 18.6667V26.6667H42.6665" stroke="#B1B1B1" stroke-width="2.2" stroke-linecap="round" stroke-linejoin="round"/>
<path d="M37.3332 33.3334H26.6665" stroke="#B1B1B1" stroke-width="2.2" stroke-linecap="round" stroke-linejoin="round"/>
<path d="M37.3332 38.6667H26.6665" stroke="#B1B1B1" stroke-width="2.2" stroke-linecap="round" stroke-linejoin="round"/>
<path d="M29.3332 28H27.9998H26.6665" stroke="#B1B1B1" stroke-width="2.2" stroke-linecap="round" stroke-linejoin="round"/>
<path d="M69.332 24.3711C71.9883 24.3711 73.9023 26.793 73.9219 30.6016C73.9023 34.4492 71.9883 36.8516 69.332 36.8516C66.6562 36.8516 64.7227 34.4492 64.7422 30.6016C64.7227 26.793 66.6562 24.3711 69.332 24.3711ZM69.332 26.3242C67.8477 26.3242 66.832 27.9062 66.832 30.6016C66.832 33.3164 67.8477 34.8984 69.332 34.8984C70.8359 34.8984 71.832 33.3164 71.832 30.6016C71.832 27.9062 70.8359 26.3242 69.332 26.3242ZM78.4141 23.082V29.8594H81.1289V31.6953H78.4141V40.7383H76.2461V23.082H78.4141ZM91.0508 24.8203C91.0508 30.1523 89.5859 34.7227 83.082 37.9648L81.8906 36.3242C84.9473 34.8105 86.7637 33.0527 87.7891 30.9531L82.3008 31.4805L82.0273 29.6055L88.4531 29.1953C88.6777 28.375 88.8145 27.5059 88.8828 26.5781H82.9453V24.8203H91.0508ZM95.6992 23.082V29.9961H98.3164V31.7734H95.6992V40.6992H93.5312V23.082H95.6992ZM113.844 23.082V40.7578H111.656V23.082H113.844ZM104.332 24.3711C106.988 24.3711 108.922 26.793 108.941 30.6016C108.922 34.4492 106.988 36.8516 104.332 36.8516C101.656 36.8516 99.7227 34.4492 99.7227 30.6016C99.7227 26.793 101.656 24.3711 104.332 24.3711ZM104.332 26.3242C102.828 26.3242 101.812 27.9062 101.812 30.6016C101.812 33.3164 102.828 34.8984 104.332 34.8984C105.816 34.8984 106.832 33.3164 106.832 30.6016C106.832 27.9062 105.816 26.3242 104.332 26.3242ZM132.574 36.7344V38.5312H116.441V36.7344H132.574ZM120.387 24.2734V27.3008H128.57V24.2734H130.738V33.5898H118.219V24.2734H120.387ZM120.387 31.8906H128.57V29H120.387V31.8906Z" fill="#B1B1B1"/>
</svg>
