<svg width="154" height="64" viewBox="0 0 154 64" fill="none" xmlns="http://www.w3.org/2000/svg">
<path d="M20.5 45.5C20.2239 45.5 20 45.2761 20 45V28C20 27.6852 20.1482 27.3889 20.4 27.2L31.4 18.95C31.7556 18.6833 32.2444 18.6833 32.6 18.95L43.6 27.2C43.8518 27.3889 44 27.6852 44 28V45C44 45.2761 43.7761 45.5 43.5 45.5H35.5C35.2239 45.5 35 45.2761 35 45V36C35 35.4477 34.5523 35 34 35H30C29.4477 35 29 35.4477 29 36V45C29 45.2761 28.7761 45.5 28.5 45.5H20.5Z" stroke="#B1B1B1" stroke-width="2.2"/>
<path d="M79.7812 23.082V40.7383H77.7109V31.7344H75.7188V39.8398H73.7266V23.4141H75.7188V29.9961H77.7109V23.082H79.7812ZM71.7344 25.1719V26.9297H67.3203V34.7812C69.2441 34.7617 70.8262 34.6641 72.6133 34.332L72.7695 36.1094C70.6406 36.5391 68.7852 36.5977 66.3242 36.6172H65.1328V25.1719H71.7344ZM88.5508 27.3203C88.5312 30.5625 90.2305 33.8047 93.1016 35.0352L91.8125 36.7734C89.7812 35.8359 88.2871 33.9609 87.4766 31.6562C86.666 34.1465 85.1523 36.1777 83.0039 37.1836L81.6758 35.3672C84.625 34.0977 86.3438 30.7188 86.3438 27.3203V24.5078H88.5508V27.3203ZM96.5586 23.082V40.7578H94.3711V23.082H96.5586ZM115.289 36.832V38.6094H99.1562V36.832H106.109V33.3945H100.934V24.2539H103.102V27.1445H111.285V24.2539H113.453V33.3945H108.258V36.832H115.289ZM103.102 31.6367H111.285V28.8828H103.102V31.6367ZM130.777 31.3633V33.1016H118.395V24.625H130.641V26.3828H120.543V31.3633H130.777ZM132.574 36.6953V38.4922H116.441V36.6953H132.574Z" fill="#B1B1B1"/>
</svg>
