<svg xmlns="http://www.w3.org/2000/svg" width="24" height="24" viewBox="0 0 24 24" fill="none">
  <path d="M12.2326 16.6606C12.087 16.584 11.913 16.5841 11.7673 16.6606L7.72565 18.7852L8.4976 14.2845C8.52542 14.1223 8.47162 13.9567 8.35373 13.8419L5.08271 10.6547L9.6015 9.99799C9.76433 9.97433 9.9051 9.87207 9.97794 9.72453L11.9999 5.62883L14.0212 9.72447C14.0941 9.87204 14.2348 9.97433 14.3977 9.99799L18.9166 10.6547L15.6462 13.8419C15.5283 13.9568 15.4746 14.1223 15.5024 14.2846L16.275 18.7852L12.2326 16.6606ZM7.65715 19.1846L7.6572 19.1844L7.65715 19.1846ZM4.68159 10.713L4.68202 10.7129C4.68187 10.7129 4.68173 10.7129 4.68159 10.713L4.65283 10.515L4.68159 10.713ZM19.3177 10.713C19.3176 10.7129 19.3174 10.7129 19.3173 10.7129L19.3177 10.713ZM16.3436 19.1847C16.3435 19.1846 16.3435 19.1845 16.3435 19.1844L16.3436 19.1847Z" stroke="#B1B1B1" stroke-linejoin="round"/>
</svg>