<svg xmlns="http://www.w3.org/2000/svg" width="25" height="26" viewBox="0 0 25 26" fill="none">
  <path d="M1 13.1045C1 7.68376 1 4.97218 2.68384 3.28833C4.36768 1.60449 7.07805 1.60449 12.5 1.60449C17.9207 1.60449 20.6323 1.60449 22.3162 3.28833C24 4.97218 24 7.68254 24 13.1045C24 18.5252 24 21.2368 22.3162 22.9206C20.6323 24.6045 17.9219 24.6045 12.5 24.6045C7.07926 24.6045 4.36768 24.6045 2.68384 22.9206C1 21.2368 1 18.5264 1 13.1045Z" stroke="#4D4D4D" stroke-width="2" stroke-linecap="round" stroke-linejoin="round"/>
  <path d="M19.1677 6.44629H19.1556M17.9475 13.1042C17.9475 14.5489 17.3736 15.9345 16.352 16.9561C15.3304 17.9776 13.9448 18.5516 12.5001 18.5516C11.0554 18.5516 9.66981 17.9776 8.64823 16.9561C7.62665 15.9345 7.05273 14.5489 7.05273 13.1042C7.05273 11.6595 7.62665 10.2739 8.64823 9.25231C9.66981 8.23073 11.0554 7.65682 12.5001 7.65682C13.9448 7.65682 15.3304 8.23073 16.352 9.25231C17.3736 10.2739 17.9475 11.6595 17.9475 13.1042Z" stroke="#4D4D4D" stroke-width="2" stroke-linecap="round" stroke-linejoin="round"/>
</svg>