<svg width="32" height="32" viewBox="0 0 32 32" fill="none" xmlns="http://www.w3.org/2000/svg">
<g clip-path="url(#clip0_78_174)">
<path d="M15.9999 7.98828C11.5663 7.98828 7.98822 11.5664 7.98822 16C7.98822 20.4336 11.5663 24.0117 15.9999 24.0117C20.4335 24.0117 24.0117 20.4336 24.0117 16C24.0117 11.5664 20.4335 7.98828 15.9999 7.98828ZM15.9999 21.207C13.1328 21.207 10.7929 18.8672 10.7929 16C10.7929 13.1328 13.1328 10.793 15.9999 10.793C18.8671 10.793 21.207 13.1328 21.207 16C21.207 18.8672 18.8671 21.207 15.9999 21.207ZM24.3398 5.79297C23.3046 5.79297 22.4687 6.62891 22.4687 7.66406C22.4687 8.69922 23.3046 9.53516 24.3398 9.53516C25.3749 9.53516 26.2109 8.70313 26.2109 7.66406C26.2112 7.41826 26.163 7.17481 26.0691 6.94766C25.9752 6.72051 25.8373 6.51412 25.6635 6.34031C25.4897 6.1665 25.2833 6.02869 25.0562 5.93477C24.829 5.84085 24.5856 5.79266 24.3398 5.79297ZM31.6171 16C31.6171 13.8438 31.6367 11.707 31.5156 9.55469C31.3945 7.05469 30.8242 4.83594 28.996 3.00781C27.164 1.17578 24.9492 0.609377 22.4492 0.488283C20.2929 0.36719 18.1562 0.386721 16.0038 0.386721C13.8476 0.386721 11.7109 0.36719 9.55854 0.488283C7.05854 0.609377 4.83979 1.17969 3.01166 3.00781C1.17963 4.83985 0.613222 7.05469 0.492129 9.55469C0.371035 11.7109 0.390566 13.8477 0.390566 16C0.390566 18.1523 0.371035 20.293 0.492129 22.4453C0.613222 24.9453 1.18353 27.1641 3.01166 28.9922C4.84369 30.8242 7.05854 31.3906 9.55854 31.5117C11.7148 31.6328 13.8515 31.6133 16.0038 31.6133C18.1601 31.6133 20.2968 31.6328 22.4492 31.5117C24.9492 31.3906 27.1679 30.8203 28.996 28.9922C30.8281 27.1602 31.3945 24.9453 31.5156 22.4453C31.6406 20.293 31.6171 18.1563 31.6171 16ZM28.1796 25.2109C27.8945 25.9219 27.5507 26.4531 26.9999 27C26.4492 27.5508 25.9218 27.8945 25.2109 28.1797C23.1562 28.9961 18.2773 28.8125 15.9999 28.8125C13.7226 28.8125 8.83979 28.9961 6.7851 28.1836C6.07416 27.8984 5.54291 27.5547 4.99604 27.0039C4.44525 26.4531 4.1015 25.9258 3.81635 25.2148C3.00385 23.1563 3.18744 18.2773 3.18744 16C3.18744 13.7227 3.00385 8.83985 3.81635 6.78516C4.1015 6.07422 4.44525 5.54297 4.99604 4.9961C5.54682 4.44922 6.07416 4.10156 6.7851 3.81641C8.83979 3.00391 13.7226 3.1875 15.9999 3.1875C18.2773 3.1875 23.1601 3.00391 25.2148 3.81641C25.9257 4.10156 26.457 4.44531 27.0038 4.9961C27.5546 5.54688 27.8984 6.07422 28.1835 6.78516C28.996 8.83985 28.8124 13.7227 28.8124 16C28.8124 18.2773 28.996 23.1563 28.1796 25.2109Z" fill="#6E6E6E"/>
</g>
<defs>
<clipPath id="clip0_78_174">
<rect width="32" height="32" fill="white"/>
</clipPath>
</defs>
</svg>
