<svg width="4" height="20" viewBox="0 0 4 20" fill="none" xmlns="http://www.w3.org/2000/svg">
<path fill-rule="evenodd" clip-rule="evenodd" d="M0.165039 1.82751C0.165039 1.36339 0.349413 0.918267 0.677602 0.590078C1.00579 0.261889 1.45091 0.0775146 1.91504 0.0775146H1.92671C2.39084 0.0775146 2.83595 0.261889 3.16414 0.590078C3.49233 0.918267 3.67671 1.36339 3.67671 1.82751V1.83918C3.67671 2.30331 3.49233 2.74843 3.16414 3.07662C2.83595 3.40481 2.39084 3.58918 1.92671 3.58918H1.91504C1.45091 3.58918 1.00579 3.40481 0.677602 3.07662C0.349413 2.74843 0.165039 2.30331 0.165039 1.83918V1.82751ZM0.165039 9.99418C0.165039 9.53005 0.349413 9.08493 0.677602 8.75674C1.00579 8.42856 1.45091 8.24418 1.91504 8.24418H1.92671C2.39084 8.24418 2.83595 8.42856 3.16414 8.75674C3.49233 9.08493 3.67671 9.53005 3.67671 9.99418V10.0058C3.67671 10.47 3.49233 10.9151 3.16414 11.2433C2.83595 11.5715 2.39084 11.7558 1.92671 11.7558H1.91504C1.45091 11.7558 1.00579 11.5715 0.677602 11.2433C0.349413 10.9151 0.165039 10.47 0.165039 10.0058V9.99418ZM1.91504 16.4108C1.45091 16.4108 1.00579 16.5952 0.677602 16.9234C0.349413 17.2516 0.165039 17.6967 0.165039 18.1608V18.1725C0.165039 18.6366 0.349413 19.0818 0.677602 19.41C1.00579 19.7381 1.45091 19.9225 1.91504 19.9225H1.92671C2.39084 19.9225 2.83595 19.7381 3.16414 19.41C3.49233 19.0818 3.67671 18.6366 3.67671 18.1725V18.1608C3.67671 17.6967 3.49233 17.2516 3.16414 16.9234C2.83595 16.5952 2.39084 16.4108 1.92671 16.4108H1.91504Z" fill="#CACACA"/>
</svg>
