<svg width="64" height="64" viewBox="0 0 64 64" fill="none" xmlns="http://www.w3.org/2000/svg">
<path d="M20.3333 33.3334H25.2399C25.6788 33.3333 26.111 33.4416 26.498 33.6486C26.885 33.8556 27.215 34.1549 27.4586 34.52L28.5413 36.1467C28.7848 36.5118 29.1148 36.8112 29.5018 37.0182C29.8889 37.2252 30.321 37.3334 30.7599 37.3334H33.2399C33.6788 37.3334 34.111 37.2252 34.498 37.0182C34.885 36.8112 35.215 36.5118 35.4586 36.1467L36.5413 34.52C36.7848 34.1549 37.1148 33.8556 37.5018 33.6486C37.8889 33.4416 38.321 33.3333 38.7599 33.3334H43.6666" stroke="#B1B1B1" stroke-width="2.2" stroke-linecap="round" stroke-linejoin="round"/>
<path d="M28 28.6667H36M30 24.6667H34M23.2667 21.48L20.384 31.9427C20.1294 32.8656 20.0003 33.8186 20 34.776V41.3333C20 42.0406 20.281 42.7189 20.781 43.219C21.2811 43.719 21.9594 44 22.6667 44H41.3333C42.0406 44 42.7189 43.719 43.219 43.219C43.719 42.7189 44 42.0406 44 41.3333V34.776C43.9997 33.8186 43.8706 32.8656 43.616 31.9427L40.7333 21.48C40.5126 21.0357 40.1722 20.6618 39.7506 20.4004C39.329 20.1389 38.8428 20.0003 38.3467 20H25.6533C25.1572 20.0003 24.671 20.1389 24.2494 20.4004C23.8278 20.6618 23.4874 21.0357 23.2667 21.48Z" stroke="#B1B1B1" stroke-width="2.2" stroke-linecap="round" stroke-linejoin="round"/>
</svg>
