<svg width="100" height="100" viewBox="0 0 100 100" fill="none" xmlns="http://www.w3.org/2000/svg">
<g clip-path="url(#clip0_652_23450)">
<path d="M56.3573 64.6941L23.4731 32.5086L56.0306 0.00012207L88.9147 32.1736L56.3573 64.6881V64.6941ZM26.6654 30.7692L46.6171 50.493L68.9422 32.2873L46.6171 11.8344L26.6654 30.7692Z" fill="#72A3FF"/>
<path d="M43.5883 64.694L10.7041 32.5086L43.2615 6.10352e-05L76.1457 32.1736L43.5883 64.6881V64.694ZM30.6645 32.4129L43.4854 44.964L56.1732 32.2872L43.3523 19.7361L30.6645 32.4129Z" fill="#0F62FE"/>
<path d="M100 83.8354L93.5305 94.3552V99.6447H91.4139V94.3552L85.144 83.8354H87.5202L92.5521 92.421L97.7437 83.8354H100Z" fill="#0F62FE"/>
<path d="M72.3606 83.8354H83.5426V85.6907H74.4572V91.0789L82.664 91.0592V92.9144H74.4572V99.6447H72.3606V83.8354Z" fill="#0F62FE"/>
<path d="M68.9194 83.8354V99.6447H66.8228V83.8354H68.9194Z" fill="#0F62FE"/>
<path d="M49.6824 83.8354H55.3532C60.8644 83.8354 64.0592 87.0328 64.0592 91.7499C64.0592 96.4671 60.8644 99.6447 55.3532 99.6447H49.6824V83.8354ZM55.4131 97.7697C59.4666 97.7697 61.9426 95.5986 61.9426 91.7499C61.9426 87.9013 59.4666 85.6907 55.4131 85.6907H51.779V97.7697H55.4131Z" fill="#0F62FE"/>
<path d="M47.4522 99.6447H44.9762L41.342 94.0197C41.0425 94.0394 40.743 94.0592 40.4435 94.0592H36.5497V99.6447H34.4531V83.8354H40.4435C44.477 83.8354 46.8531 85.8289 46.8531 88.9473C46.8531 91.1776 45.6351 92.8355 43.4386 93.6052L47.4522 99.6447ZM40.2837 92.2039C43.0593 92.2039 44.7565 91.0789 44.7565 88.9473C44.7565 86.8157 43.0593 85.6907 40.2837 85.6907H36.5497V92.2039H40.2837Z" fill="#0F62FE"/>
<path d="M30.0296 99.6447L28.4322 95.7368H20.7446L19.1471 99.6447H16.9507L23.5401 83.8354H25.7565L32.3259 99.6447H30.0296ZM21.4834 93.9013H27.6934L24.5984 86.2631L21.4834 93.9013Z" fill="#0F62FE"/>
<path d="M8.38648 100C3.55427 100 0 96.5066 0 91.7303C0 86.9539 3.55427 83.4605 8.38648 83.4605C12.5198 83.4605 15.3752 85.8289 16.2139 89.1447H14.0773C13.3984 86.9145 11.3417 85.375 8.42642 85.375C4.75234 85.375 2.09662 88.0197 2.09662 91.7303C2.09662 95.4211 4.77231 98.0856 8.42642 98.0856C11.4216 98.0856 13.658 96.3487 14.2371 94.0987H16.3736C15.6747 97.3948 12.6197 100 8.38648 100Z" fill="#0F62FE"/>
</g>
<defs>
<clipPath id="clip0_652_23450">
<rect width="100" height="100" fill="white"/>
</clipPath>
</defs>
</svg>
