

<svg width="157" height="29" viewBox="0 0 157 29" fill="none" xmlns="http://www.w3.org/2000/svg">
<g clip-path="url(#clip0_217_759)">
<path d="M156.582 2.26318L147.371 19.1445V26.8754H141.875V19.1445L132.664 2.26318H138.946L144.865 13.8898L150.754 2.26318H156.582Z" fill="#1062FE"/>
<path d="M112.506 26.8754V2.26318H130.565V7.09503H118.002V12.6819H129.176V17.4533H118.002V26.8754H112.506Z" fill="#1062FE"/>
<path d="M102.655 2.26318H108.151V26.8754H102.655V2.26318Z" fill="#1062FE"/>
<path d="M74.0691 26.8754H67.6971L62.9256 19.1143H58.5468V26.8754H53.0505V2.26318H62.9558C69.207 2.26318 72.8611 5.58508 72.8611 10.6887C72.8611 14.071 71.2606 16.6681 68.3615 18.0271L74.0691 26.8754ZM58.5468 7.12523V14.2522H62.7142C65.6133 14.2522 67.3649 13.014 67.3649 10.6887C67.3649 8.36339 65.6133 7.12523 62.7142 7.12523H58.5468Z" fill="#1062FE"/>
<path d="M44.4489 26.8754L42.7276 22.104H33.1847L31.4633 26.8754H25.7859L35.3288 2.26318H41.0364L50.5793 26.8754H44.4489ZM34.8758 17.3325H41.0364L37.9561 8.75598L34.8758 17.3325Z" fill="#1062FE"/>
<path d="M13.1668 27.4795C5.58682 27.4795 0 22.0135 0 14.5543C0 7.09518 5.58682 1.62915 13.1668 1.62915C19.9314 1.62915 24.4612 5.70602 25.4578 10.9003H19.9012C19.3274 8.54473 16.8209 6.67239 13.2876 6.67239C8.81812 6.67239 5.49623 9.96409 5.49623 14.5543C5.49623 19.1144 8.81812 22.4363 13.2876 22.4363C16.8209 22.4363 19.72 20.111 20.1428 17.8762H25.6994C24.9444 22.8289 19.9918 27.4795 13.1668 27.4795Z" fill="#1062FE"/>
<path fill-rule="evenodd" clip-rule="evenodd" d="M100.734 14.6497L87.2729 28.1112L73.8114 14.6497L87.2729 1.18811L100.734 14.6497ZM87.2729 9.09698L81.7202 14.6497L87.2729 20.2023L92.8256 14.6497L87.2729 9.09698Z" fill="#1062FE"/>
</g>
<defs>
<clipPath id="clip0_217_759">
<rect width="156.73" height="29" fill="white"/>
</clipPath>
</defs>
</svg>

