    <svg width="32" height="32" viewBox="0 0 32 32" fill="none" xmlns="http://www.w3.org/2000/svg">
<path d="M16.2325 19.8101C16.0868 19.7335 15.9128 19.7335 15.7672 19.8101L12.5486 21.502L13.1633 17.9179C13.1911 17.7556 13.1373 17.5901 13.0194 17.4752L10.4146 14.9371L14.0131 14.4141C14.1759 14.3905 14.3167 14.2882 14.3895 14.1407L15.9998 10.879L17.6095 14.1406C17.6823 14.2882 17.8231 14.3905 17.9859 14.4141L21.5846 14.9371L18.9802 17.4753C18.8623 17.5901 18.8085 17.7557 18.8364 17.9179L19.4516 21.502L16.2325 19.8101ZM10.0134 14.9954L10.0139 14.9953C10.0137 14.9953 10.0136 14.9953 10.0134 14.9954L9.98467 14.7974L10.0134 14.9954ZM19.5202 21.9015C19.5202 21.9014 19.5202 21.9013 19.5202 21.9012L19.5202 21.9015Z" stroke="#B1B1B1" stroke-linejoin="round"/>
</svg>
