<svg width="51" height="51" viewBox="0 0 51 51" fill="none" xmlns="http://www.w3.org/2000/svg">
<g clip-path="url(#clip0_217_263)">
<circle cx="25.5" cy="25.5" r="25.5" fill="#F5F5F5"/>
<path d="M25.5007 25.5C22.8305 25.5 20.4783 22.9914 20.2512 19.9073C20.1351 18.3425 20.6196 16.8938 21.614 15.8288C22.5933 14.7738 23.9763 14.1934 25.5007 14.1934C27.015 14.1934 28.393 14.7789 29.3773 15.8389C30.3767 16.914 30.8613 18.3576 30.7452 19.9073C30.518 22.9914 28.1658 25.5 25.5007 25.5ZM25.5007 15.8086C24.4306 15.8086 23.4665 16.2074 22.7952 16.9292C22.1137 17.6611 21.7806 18.6807 21.8614 19.7912C22.0229 22.0121 23.6886 23.8898 25.4956 23.8898C27.3027 23.8898 28.9684 22.0121 29.1299 19.7912C29.2107 18.6958 28.8775 17.6813 28.186 16.9393C27.5197 16.2074 26.5607 15.8086 25.5007 15.8086Z" fill="#646464"/>
<path d="M34.3844 36.8066H16.6168C16.1323 36.8066 15.6982 36.6047 15.3953 36.2463C15.0672 35.8526 14.936 35.3176 15.0319 34.7775C15.4559 32.4152 16.7885 30.4264 18.8782 29.0383C20.7357 27.8017 23.0879 27.1202 25.5006 27.1202C27.9134 27.1202 30.2656 27.8017 32.1231 29.0383C34.2128 30.4315 35.5454 32.4152 35.9694 34.7775C36.0653 35.3176 35.9341 35.8526 35.606 36.2463C35.3031 36.6047 34.869 36.8066 34.3844 36.8066ZM16.6269 35.1914H34.3743C34.3844 35.1661 34.3895 35.1258 34.3794 35.0601C33.597 30.7141 29.2258 28.7304 25.5006 28.7304C21.7755 28.7304 17.4043 30.7141 16.6219 35.0601C16.6118 35.1258 16.6168 35.1661 16.6269 35.1914Z" fill="#646464"/>
</g>
<defs>
<clipPath id="clip0_217_263">
<rect width="51" height="51" rx="25.5" fill="white"/>
</clipPath>
</defs>
</svg>
