<svg width="48" height="48" viewBox="0 0 48 48" fill="none" xmlns="http://www.w3.org/2000/svg">
<path d="M36 36L30.2094 30.2094M30.2094 30.2094C31.1999 29.2189 31.9856 28.043 32.5217 26.7488C33.0577 25.4547 33.3336 24.0676 33.3336 22.6668C33.3336 21.266 33.0577 19.879 32.5217 18.5848C31.9856 17.2906 31.1999 16.1147 30.2094 15.1242C29.2189 14.1337 28.043 13.348 26.7488 12.812C25.4547 12.2759 24.0676 12 22.6668 12C21.266 12 19.879 12.2759 18.5848 12.812C17.2906 13.348 16.1147 14.1337 15.1242 15.1242C13.1238 17.1247 12 19.8378 12 22.6668C12 25.4958 13.1238 28.209 15.1242 30.2094C17.1247 32.2098 19.8378 33.3336 22.6668 33.3336C25.4958 33.3336 28.209 32.2098 30.2094 30.2094Z" stroke="#939393" stroke-width="1.5" stroke-linecap="round" stroke-linejoin="round"/>
<path fill-rule="evenodd" clip-rule="evenodd" d="M19.5684 27.8835C19.2885 28.1888 18.814 28.2094 18.5087 27.9295C18.2034 27.6496 18.1828 27.1751 18.4628 26.8698L21.8896 23.1322L18.4628 19.3946C18.1828 19.0893 18.2034 18.6148 18.5087 18.3349C18.814 18.055 19.2885 18.0756 19.5684 18.3809L22.9072 22.0225L26.246 18.3809C26.5259 18.0756 27.0004 18.055 27.3057 18.3349C27.611 18.6148 27.6316 19.0893 27.3516 19.3946L23.9248 23.1322L27.3516 26.8698C27.6316 27.1751 27.611 27.6496 27.3057 27.9295C27.0004 28.2094 26.5259 28.1888 26.246 27.8835L22.9072 24.2419L19.5684 27.8835Z" fill="#939393"/>
</svg>
