<svg xmlns="http://www.w3.org/2000/svg" width="23" height="25" viewBox="0 0 23 25" fill="none">
  <path fill-rule="evenodd" clip-rule="evenodd" d="M15.7308 9.80256C15.7308 13.69 12.7534 16.6051 9.36542 16.6051C5.9774 16.6051 3 13.69 3 9.80256C3 5.91516 5.9774 3 9.36542 3C12.7534 3 15.7308 5.91516 15.7308 9.80256ZM14.3861 18.079C12.935 19.0453 11.2127 19.6051 9.36542 19.6051C4.19304 19.6051 0 15.2164 0 9.80256C0 4.38876 4.19304 0 9.36542 0C14.5378 0 18.7308 4.38876 18.7308 9.80256C18.7308 12.1744 17.926 14.3495 16.5866 16.045L22.5447 22.3064L20.4767 24.4797L14.3861 18.079Z" fill="#1A1A1A"/>
</svg>