<svg xmlns="http://www.w3.org/2000/svg" width="14" height="14" viewBox="0 0 14 14" fill="none">
  <path d="M2.14062 7.55566H4.18507C4.36795 7.55564 4.54801 7.60075 4.70927 7.687C4.87054 7.77326 5.00802 7.89798 5.10951 8.05011L5.56063 8.72789C5.66212 8.88002 5.7996 9.00474 5.96087 9.09099C6.12213 9.17724 6.30219 9.22236 6.48507 9.22233H7.5184C7.70128 9.22236 7.88134 9.17724 8.04261 9.09099C8.20387 9.00474 8.34135 8.88002 8.44285 8.72789L8.89396 8.05011C8.99546 7.89798 9.13294 7.77326 9.2942 7.687C9.45546 7.60075 9.63552 7.55564 9.8184 7.55566H11.8628" stroke="#B1B1B1" stroke-width="0.8" stroke-linecap="round" stroke-linejoin="round"/>
  <path d="M5.33333 5.61111H8.66667M6.16667 3.94444H7.83333M3.36111 2.61667L2.16 6.97611C2.05393 7.36067 2.00011 7.75775 2 8.15667V10.8889C2 11.1836 2.11706 11.4662 2.32544 11.6746C2.53381 11.8829 2.81643 12 3.11111 12H10.8889C11.1836 12 11.4662 11.8829 11.6746 11.6746C11.8829 11.4662 12 11.1836 12 10.8889V8.15667C11.9999 7.75775 11.9461 7.36067 11.84 6.97611L10.6389 2.61667C10.5469 2.43155 10.4051 2.27576 10.2294 2.16682C10.0537 2.05788 9.85116 2.00011 9.64444 2H4.35556C4.14884 2.00011 3.94626 2.05788 3.77058 2.16682C3.5949 2.27576 3.4531 2.43155 3.36111 2.61667Z" stroke="#B1B1B1" stroke-width="0.8" stroke-linecap="round" stroke-linejoin="round"/>
</svg>