<svg xmlns="http://www.w3.org/2000/svg" width="26" height="25" viewBox="0 0 26 25" fill="none">
  <rect x="0.585938" width="24.9465" height="25" rx="12" fill="#D9D9D9"/>
  <path d="M13.0532 12.0285C11.929 12.0285 10.9387 10.9701 10.8431 9.66886C10.7942 9.00866 10.9982 8.39744 11.4168 7.94807C11.8291 7.50297 12.4114 7.25806 13.0532 7.25806C13.6907 7.25806 14.2709 7.5051 14.6853 7.95233C15.1061 8.40596 15.3101 9.01504 15.2612 9.66886C15.1656 10.9701 14.1753 12.0285 13.0532 12.0285ZM13.0532 7.93956C12.6027 7.93956 12.1968 8.1078 11.9141 8.41234C11.6272 8.72115 11.487 9.15134 11.521 9.61987C11.589 10.5569 12.2903 11.3492 13.0511 11.3492C13.8119 11.3492 14.5132 10.5569 14.5812 9.61987C14.6152 9.15773 14.4749 8.72967 14.1838 8.4166C13.9032 8.1078 13.4995 7.93956 13.0532 7.93956Z" fill="#505050"/>
  <path d="M16.7935 16.799H9.31301C9.109 16.799 8.92624 16.7138 8.79873 16.5626C8.6606 16.3965 8.60534 16.1708 8.64572 15.9429C8.82423 14.9462 9.38527 14.1071 10.2651 13.5214C11.0471 12.9997 12.0374 12.7122 13.0532 12.7122C14.069 12.7122 15.0594 12.9997 15.8414 13.5214C16.7212 14.1092 17.2822 14.9462 17.4607 15.9429C17.5011 16.1708 17.4459 16.3965 17.3077 16.5626C17.1802 16.7138 16.9975 16.799 16.7935 16.799ZM9.31726 16.1175H16.7892C16.7935 16.1069 16.7956 16.0898 16.7913 16.0621C16.4619 14.2285 14.6216 13.3915 13.0532 13.3915C11.4849 13.3915 9.64453 14.2285 9.31514 16.0621C9.31089 16.0898 9.31301 16.1069 9.31726 16.1175Z" fill="#505050"/>
</svg>